<?xml version="1.0" encoding="UTF-8"?>
<svg id="svg1325" xmlns="http://www.w3.org/2000/svg" viewBox="0 0 590.16 714.01">
  <defs>
    <style>
      .cls-1 {
        stroke-width: 4.25px;
      }

      .cls-1, .cls-2, .cls-3, .cls-4, .cls-5, .cls-6, .cls-7, .cls-8 {
        stroke-linecap: round;
      }

      .cls-1, .cls-2, .cls-4, .cls-9, .cls-10, .cls-5, .cls-11, .cls-12, .cls-13, .cls-14, .cls-15, .cls-16, .cls-17, .cls-18, .cls-6, .cls-19, .cls-7, .cls-20, .cls-21, .cls-22, .cls-23, .cls-8 {
        stroke: #000;
      }

      .cls-1, .cls-3, .cls-4, .cls-14, .cls-7, .cls-8 {
        fill: none;
      }

      .cls-2, .cls-11, .cls-12, .cls-14 {
        stroke-width: 4.07px;
      }

      .cls-3 {
        stroke: #504e4b;
        stroke-width: 2.77px;
      }

      .cls-4 {
        stroke-width: 4.96px;
      }

      .cls-9 {
        stroke-width: 2.66px;
      }

      .cls-9, .cls-10, .cls-11, .cls-12, .cls-13, .cls-15, .cls-16, .cls-17, .cls-18, .cls-19, .cls-24, .cls-20, .cls-21, .cls-22, .cls-23, .cls-25 {
        fill-rule: evenodd;
      }

      .cls-9, .cls-19 {
        fill: #0e8d49;
      }

      .cls-5 {
        fill: #feffff;
        stroke-width: 2.06px;
      }

      .cls-11, .cls-23 {
        fill: #00ac4e;
      }

      .cls-12, .cls-13 {
        fill: #00ab4e;
      }

      .cls-13 {
        stroke-width: 4.07px;
      }

      .cls-15 {
        stroke-width: 1px;
      }

      .cls-15, .cls-25 {
        stroke-miterlimit: 4;
      }

      .cls-16 {
        fill: #d6ac00;
      }

      .cls-16, .cls-17 {
        stroke-width: 3.19px;
      }

      .cls-17, .cls-22 {
        fill: #fff;
      }

      .cls-18 {
        stroke-width: 1.42px;
      }

      .cls-18, .cls-21 {
        fill: #252122;
      }

      .cls-6 {
        stroke-width: 1.62px;
      }

      .cls-19 {
        stroke-width: 3.01px;
      }

      .cls-7 {
        stroke-width: 4.61px;
      }

      .cls-24 {
        stroke-width: 1.77px;
      }

      .cls-24, .cls-25 {
        fill: #fdaf17;
        stroke: #010000;
      }

      .cls-20 {
        fill: #ffc800;
      }

      .cls-20, .cls-23 {
        stroke-width: 10.63px;
      }

      .cls-25 {
        stroke-width: 1.77px;
      }

      .cls-8 {
        stroke-width: 3.54px;
      }
    </style>
  </defs>
  <g id="g3342">
    <g id="g3141">
      <path id="path1334" class="cls-20" d="m293.86,5.34L5.31,6.79v433.55c11.94,140.52,134.55,272.69,288.55,268.25V5.34Z"/>
      <path id="path2482" class="cls-12" d="m128.89,169.77l.42-22.43c.43-9.06-4.96-10.12-9.14-7.06-4.65,3.4-8.36.35-6.65-12.05,2.43-15.81-8.25-18.52-11.63-11.63-5.21,8.65-8.81,1.28-7.06-8.31,1.8-16.23-8.56-20.45-14.12-10.8-5.68,7.45-8.97,5.95-10.39-2.49-.37-7.55-7.27-7.49-14.12-7.48-7.52,1.2-11.72,5.72-13.71,12.46-1.64,9.04,2.25,12.81,8.72,14.12,7.71-.29,12.79,5.54,2.49,11.22-9.01,5.68-9.57,14.43,9.14,13.71,18.16-3.1,14.58,5.24,9.97,6.65-10.11,5.39-.63,13.96,14.12,11.63,14.62-1.78,18.2,4.46,12.88,6.65-6.64,6.07-.17,11.54,11.22,8.72,6.09-1.25,12.15-2.42,17.86-2.91Z"/>
      <path id="path2486" class="cls-12" d="m128.74,322.92l.46-24.51c.47-9.9-5.47-11.06-10.09-7.72-5.13,3.72-9.24.39-7.34-13.16,2.68-17.28-9.11-20.24-12.85-12.71-5.75,9.45-9.73,1.4-7.8-9.08,1.99-17.73-9.45-22.35-15.6-11.8-6.28,8.14-9.9,6.5-11.47-2.72-.41-8.25-8.03-8.18-15.6-8.17-8.3,1.32-12.95,6.25-15.14,13.62-1.81,9.88,2.48,14,9.63,15.43,8.51-.32,14.12,6.06,2.75,12.26-9.95,6.2-10.57,15.77,10.09,14.98,20.06-3.39,16.1,5.72,11.01,7.26-11.16,5.89-.69,15.25,15.6,12.71,16.14-1.94,20.1,4.88,14.22,7.26-7.33,6.63-.19,12.61,12.39,9.53,6.73-1.36,13.42-2.65,19.73-3.18Z"/>
      <path id="path2488" class="cls-12" d="m130.2,439l-6.71-22.49c-2.44-9.16-8.29-8.56-11.59-4.22-3.67,4.83-8.44,2.94-10.63-9.96-2.54-16.52-14.33-15.92-15.6-8-2.58,10.23-8.61,4-9.87-6.1-3.31-16.74-15.26-17.75-17.88-6.41-3.45,9.18-7.28,8.71-11.42.72-2.78-7.42-9.82-5.22-16.83-3.09-7.31,3.52-10.17,9.33-10.06,16.66,1.19,9.52,6.37,12.08,13.41,11.39,7.79-2.67,14.85,1.57,6.12,10.41-7.41,8.44-5.21,17.35,13.71,10.84,17.59-8.7,16.58.72,12.31,3.55-8.63,8.5,3.79,14.11,18.15,7.23,14.39-6.29,20.04-1.17,15.29,2.65-4.86,8.1,3.5,11.56,14.25,5.23,5.84-3.13,11.66-6.17,17.35-8.42Z"/>
      <path id="path2490" class="cls-12" d="m165.79,175.29l3.64-22.14c1.22-8.98,6.7-9.06,10.26-5.29,3.96,4.19,8.16,1.86,8.71-10.65.47-15.99,11.46-16.73,13.54-9.34,3.56,9.44,8.44,2.85,8.45-6.9,1.16-16.28,12.12-18.57,15.84-8.07,4.24,8.35,7.74,7.47,10.66-.58,1.73-7.36,8.5-6.05,15.24-4.8,7.18,2.54,10.5,7.75,11.23,14.73-.02,9.19-4.53,12.2-11.13,12.32-7.53-1.68-13.58,3.14-4.48,10.58,7.84,7.21,6.81,15.92-11.47,11.83-17.3-6.33-15.29,2.51-11.01,4.74,8.97,7.13-1.9,13.84-15.99,8.89-14.05-4.39-18.71,1.1-13.87,4.21,5.43,7.16-1.92,11.39-12.61,6.55-5.77-2.33-11.51-4.58-17.04-6.09Z"/>
      <path id="path2492" class="cls-12" d="m175.81,310.54l1.64-24.46c.38-9.9,6.4-10.55,10.72-6.83,4.8,4.14,9.17,1.17,8.44-12.49-1.2-17.44,10.81-19.39,13.88-11.56,4.92,9.9,9.58,2.23,8.55-8.38-.47-17.84,11.33-21.46,16.55-10.42,5.56,8.65,9.31,7.33,11.66-1.73,1.11-8.19,8.7-7.47,16.24-6.81,8.16,2.02,12.36,7.34,13.92,14.86.96,10-3.67,13.74-10.92,14.55-8.45-1.04-14.59,4.83-3.79,11.98,9.38,7.03,9.19,16.61-11.34,14.06-19.69-5.09-16.53,4.32-11.59,6.29,10.62,6.82-.61,15.25-16.63,11.33-15.92-3.32-20.44,3.14-14.79,6.02,6.73,7.23-.89,12.58-13.16,8.44-6.59-1.93-13.14-3.78-19.38-4.85Z"/>
      <path id="path2221" class="cls-11" d="m144.91,148.27l-.05,34.7c-27.54-30.36-55.17-61.77-89.74-82.53,31.27,27.8,58.76,57.48,86,87.3l-13.84-7.63-3.26,3.53c7.04,5.26,17.79,9.3,16.31,17.4l-8.43-3.26-1.09,4.35c5.08,2.95,10.82,5.42,8.97,13.32l-.27,19.57-3.53,3.26-14.68-14.41-3.26,4.62,18.21,19.3-11.96-5.71-1.36,4.08c7.5,4.24,15.32,8.1,16.85,19.3l-2.45,64.43c-25.94-26.63-54.3-58.26-85.09-79.11l86.18,89.17-10.33-7.07-4.08,4.08c8.28,2.71,13.95,8.62,13.05,22.56l.27,12.5-16.04-11.15-1.36,6.8,18.76,13.86-12.23-2.45-2.17,4.35c7.46.82,13.18,4.03,12.5,16.04l-.54,37.79c-32.53-17.13-65.06-28.89-97.59-39.96l89.44,44.85,6.8,13.05v44.58c-.8,19.03-6.52,55.69-15.5,56.27l-9.51.82c-3.51,3.12-7.46,2.67-11.69,0-8.67-7.26-13.21-2.75-16.85,4.35,3.95-2.08,7.85-4.62,12.5-1.09l8.43-.82c-14,2.08-10.54,10.59-11.69,17.4,5.16-11.84,13.86-11.3,21.75-13.59,14.84,3.28,17.61-6.29,22.02-14.14-3.44,7.67-3.8,17.46-16.04,19.03-12.75-1.38-13.36,6-13.32,13.86,1.44-8.47,12.21-11.34,20.39-15.77-8.62,7.01-12.76,13.47-9.79,19.03,3.76-6.14,7.05-12.98,13.59-14.95,6.09-2.97,8.92-9.2,12.23-14.95,1.23,5.56,3.26,11.33-1.09,15.5-2.95,6.51-.27,11.15.82,16.31,1.38-10.6,6.86-15.74,12.5-20.66-6.02,8.52-2.46,13.45,2.99,17.67-1.03-6.02-1.01-11.73,2.99-16.31-.84-6.3,1.12-10.73,4.62-14.14,5.34,10.91,6.23,23.3,7.34,35.61,1.5-4.71,4.31-8.9,2.45-14.95,6.04,2.39,9.6,7.9,12.78,13.86,1.05-12.17-13.79-18.13-14.68-34.52,3.12,5.97,2.4,16.47,12.78,13.86,8.36-.05,9.84,4.28,10.33,9.24-1.9,5.12,1.2,7.74,6.52,9.24-2.09-4.03-3.79-8.29-2.99-13.05,5.31.37,7.42,11.1,12.51,13.05,2.4.31,4.28.11,3.81-2.45-6.53-3.06-8.95-15.95-14.95-15.5-6.1-2.04-9.82-5.86-13.05-10.06,10.35-6.21,16.76-1.93,22.84,3.26,6.01,6.23,17.02,10.37,15.22,19.84l2.45.27,2.17-6.8c2.94,5.03,5.77,10.08,12.23,14.41l4.89-1.36c-4.63-3.87-7.96-8.27-8.97-13.59-1.62-3-2.39-6.71-8.16-6.25-7.67-2.24-11.28-6.5-14.68-10.87-5.8-6.96-13.32-9.17-22.02-8.16-19.93-.82-14.15-14.49-18.49-23.11l.06-52.86c3.64-12.2,11.18-16.59,18.84-20.76-8.22-1.48-16.25-.85-23.45,8.84l-.77-77.66c4.97-11.6,11.85-18.42,18.84-24.99l-3.46-7.69-14.61,16.53-4.23-1.92c-4.33-26.23,7.08-30.42,17.68-35.75l-1.92-6.15-14.99,10.38c26.34-32.84,56.09-63.64,92.65-90.35-32.81,19.21-70.06,44.92-98.03,81.5v-68.05c2.78-8.86,8.86-12.23,14.61-16.15l-3.08-5-10,4.61,22.68-20.38-3.46-6.54-24.99,21.14,1.15-26.91c1.45-7.6,5.94-9.14,9.23-13.07l-2.69-5.38-7.3,5.38c27.6-30.66,63.61-51.71,98.03-74.58-39.42,18.26-77.43,38.32-105.72,70.74l1.92-42.29-6.67-.03Z"/>
      <path id="path2494" class="cls-12" d="m170.78,435.1l4.93-22.95c1.72-9.32,7.59-9.19,11.23-5.11,4.04,4.53,8.65,2.27,9.82-10.76,1.24-16.66,13.04-16.99,14.92-9.2,3.37,10,8.89,3.32,9.36-6.85,2-16.94,13.83-18.89,17.33-7.78,4.15,8.89,7.94,8.11,11.44-.17,2.19-7.61,9.38-5.97,16.53-4.4,7.56,2.94,10.87,8.51,11.33,15.82-.45,9.59-5.41,12.54-12.48,12.4-7.98-2.05-14.68,2.73-5.28,10.86,8.05,7.84,6.55,16.89-12.82,11.88-18.22-7.3-16.48,2.01-12,4.5,9.27,7.8-2.68,14.36-17.53,8.63-14.84-5.15-20.07.4-15.03,3.83,5.48,7.69-2.58,11.8-13.8,6.33-6.06-2.66-12.11-5.24-17.96-7.04Z"/>
      <path id="path2225" class="cls-11" d="m159.65,442.79c28.89-24.4,64.38-39.56,98.03-57.28-33.71,19.86-66.7,40.29-95.34,64.2"/>
      <path id="path2293" class="cls-12" d="m132.29,125.56l35.18,1.11c-.22-16.29,6.03-45.73-15.92-48.14-21.71,2.15-18.22,26.09-19.26,47.03Z"/>
      <path id="path2227" class="cls-19" d="m126.95,125.6h46.06c-.93,12.86-5.66,23.97-24.78,24.49-21.87-1.74-20.95-16.01-21.28-24.49Z"/>
      <path id="path2229" class="cls-19" d="m161.66,125.93l8.94,9.69"/>
      <path id="path2231" class="cls-19" d="m150.77,126l16.49,16"/>
      <path id="path2233" class="cls-19" d="m139.78,125.31l21.54,21.54"/>
      <path id="path2235" class="cls-19" d="m129.92,125.71l23.27,23.5"/>
      <path id="path2239" class="cls-19" d="m127.25,131.72l16.03,17.2"/>
      <path id="path2241" class="cls-19" d="m169.62,125.32l-24.65,23.75"/>
      <path id="path2243" class="cls-19" d="m159.89,125.67l-22.01,21.42"/>
      <path id="path2245" class="cls-19" d="m150.66,125.67l-18.16,17.42"/>
      <path id="path2247" class="cls-19" d="m140.07,125.31l-11.66,11.95"/>
      <path id="path2249" class="cls-19" d="m130.38,125.84l-3.43,4.14"/>
      <path id="path2291" class="cls-19" d="m171.55,133.08l-16.92,16.14"/>
      <path id="path2295" class="cls-2" d="m153.76,76.5c0,.92-.83,1.67-1.85,1.67s-1.85-.75-1.85-1.67.83-1.67,1.85-1.67,1.85.75,1.85,1.67Z"/>
      <path id="path2316" class="cls-12" d="m87.63,229.57l23.7-31.06c-13.38-9.29-33.26-32.08-49.45-13.69-12.32,20.82,9.4,31.62,25.75,44.75Z"/>
      <g id="g3070">
        <path id="path2320" class="cls-9" d="m85.71,232.33l26.86-37.41c9.9,8.25,16.17,18.58,5.44,34.41-14.17,16.75-25.22,7.68-32.3,3.01Z"/>
        <path id="path2322" class="cls-9" d="m106.22,204.33l13.09-1.61"/>
        <path id="path2324" class="cls-9" d="m99.92,213.22l22.62-4.07"/>
        <path id="path2326" class="cls-9" d="m92.95,221.74l30.06-4.94"/>
        <path id="path2328" class="cls-9" d="m87.53,229.99l32.66-5.2"/>
        <path id="path2332" class="cls-9" d="m90.85,235.67l23.32-2.99"/>
        <path id="path2334" class="cls-9" d="m110.37,197.51l4.92,33.88"/>
        <path id="path2336" class="cls-9" d="m104.97,205.62l4.57,30.37"/>
        <path id="path2338" class="cls-9" d="m99.59,213.12l3.56,24.91"/>
        <path id="path2340" class="cls-9" d="m93.12,221.51l2.91,16.44"/>
        <path id="path2342" class="cls-9" d="m87.9,229.69l1.36,5.2"/>
        <path id="path2344" class="cls-9" d="m117.79,200.47l3.25,23.16"/>
      </g>
      <path id="path2348" class="cls-12" d="m213.92,226.48l-18.32-36.19c14.99-6.42,38.82-24.95,51.83-3.07,8.72,23.49-14.88,29.62-33.5,39.25Z"/>
      <path id="path2352" class="cls-9" d="m214.85,229.05l-19.26-41.84c-11.29,6.22-19.41,15.16-11.88,32.75,10.73,19.14,23.3,12.33,31.14,9.09Z"/>
      <path id="path2354" class="cls-9" d="m200.03,197.66l-12.54-4.07"/>
      <path id="path2356" class="cls-9" d="m204.53,207.59l-21.43-8.29"/>
      <path id="path2358" class="cls-9" d="m209.75,217.28l-28.58-10.56"/>
      <path id="path2360" class="cls-9" d="m213.51,226.4l-31.08-11.31"/>
      <path id="path2364" class="cls-9" d="m209.16,231.35l-22.33-7.37"/>
      <path id="path2366" class="cls-9" d="m197.26,190.18l-11.27,32.32"/>
      <path id="path2368" class="cls-9" d="m201.01,199.17l-10.25,28.95"/>
      <path id="path2370" class="cls-9" d="m204.87,207.55l-8.23,23.78"/>
      <path id="path2372" class="cls-9" d="m209.63,217.02l-5.98,15.59"/>
      <path id="path2374" class="cls-9" d="m213.2,226.04l-2.33,4.84"/>
      <path id="path2376" class="cls-9" d="m189.41,191.67l-7.59,22.12"/>
      <path id="path2380" class="cls-13" d="m216.04,363.37l-17.18-35.1c15-6.36,39.07-24.58,51.37-3.36,8.01,22.8-15.5,28.95-34.18,38.46Z"/>
      <g id="g3126">
        <path id="path2384" class="cls-9" d="m217.31,366.55l-18.85-42.02c-11.35,6.11-19.55,14.97-12.2,32.63,10.54,19.24,23.18,12.56,31.05,9.39Z"/>
        <path id="path2386" class="cls-9" d="m202.81,335.01l-12.5-4.19"/>
        <path id="path2388" class="cls-9" d="m207.2,344.98l-21.35-8.5"/>
        <path id="path2390" class="cls-9" d="m212.33,354.72l-28.47-10.84"/>
        <path id="path2392" class="cls-9" d="m216,363.88l-30.97-11.61"/>
        <path id="path2396" class="cls-9" d="m211.61,368.79l-22.25-7.59"/>
        <path id="path2398" class="cls-9" d="m200.1,327.5l-11.59,32.21"/>
        <path id="path2400" class="cls-9" d="m203.77,336.53l-10.54,28.85"/>
        <path id="path2402" class="cls-9" d="m207.55,344.95l-8.46,23.7"/>
        <path id="path2404" class="cls-9" d="m212.21,354.46l-6.13,15.53"/>
        <path id="path2406" class="cls-9" d="m215.7,363.52l-2.37,4.82"/>
        <path id="path2408" class="cls-9" d="m192.24,328.92l-7.81,22.04"/>
      </g>
      <path id="path2444" class="cls-13" d="m89.01,375l17.18-35.1c-15-6.36-39.07-24.58-51.37-3.36-8.01,22.8,15.5,28.95,34.18,38.46Z"/>
      <g id="g3098">
        <path id="path2448" class="cls-9" d="m87.74,378.18l18.85-42.02c11.35,6.11,19.55,14.97,12.2,32.63-10.54,19.24-23.18,12.56-31.05,9.39Z"/>
        <path id="path2450" class="cls-9" d="m102.24,346.64l12.5-4.19"/>
        <path id="path2452" class="cls-9" d="m97.85,356.62l21.35-8.5"/>
        <path id="path2454" class="cls-9" d="m92.72,366.36l28.47-10.84"/>
        <path id="path2456" class="cls-9" d="m89.05,375.52l30.97-11.61"/>
        <path id="path2460" class="cls-9" d="m93.45,380.42l22.25-7.59"/>
        <path id="path2462" class="cls-9" d="m104.95,339.13l11.59,32.21"/>
        <path id="path2464" class="cls-9" d="m101.28,348.16l10.54,28.85"/>
        <path id="path2466" class="cls-9" d="m97.51,356.58l8.46,23.7"/>
        <path id="path2468" class="cls-9" d="m92.84,366.09l6.13,15.53"/>
        <path id="path2470" class="cls-9" d="m89.36,375.15l2.37,4.82"/>
        <path id="path2472" class="cls-9" d="m112.81,340.55l7.81,22.04"/>
      </g>
      <path id="path2474" class="cls-2" d="m251.39,187c0,.92-.83,1.67-1.85,1.67s-1.85-.75-1.85-1.67.83-1.67,1.85-1.67,1.85.75,1.85,1.67Z"/>
      <path id="path2476" class="cls-2" d="m62.79,182.84c0,.92-.83,1.67-1.85,1.67s-1.85-.75-1.85-1.67.83-1.67,1.85-1.67,1.85.75,1.85,1.67Z"/>
      <path id="path2478" class="cls-2" d="m56.97,334.88c0,.92-.83,1.67-1.85,1.67s-1.85-.75-1.85-1.67.83-1.67,1.85-1.67,1.85.75,1.85,1.67Z"/>
      <path id="path2480" class="cls-2" d="m252.63,326.99c0,.92-.83,1.67-1.85,1.67s-1.85-.75-1.85-1.67.83-1.67,1.85-1.67,1.85.75,1.85,1.67Z"/>
      <path id="path2484" class="cls-14" d="m94.41,106.63h-.42"/>
    </g>
    <g id="g3300">
      <path id="path2209" class="cls-23" d="m296.3,5.34l288.55,1.45v433.55c-11.94,140.52-134.55,272.69-288.55,268.25V5.34Z"/>
      <g id="g3233">
        <g id="g2640">
          <path id="path2594" class="cls-17" d="m415.95,353.7c2.14-30.4-14.75-49.93-26.78-72.23-22.68-41.99-3.98-73.76,15.96-86.03,12.02-10.23,13.61-26.11-4.6-31.65l-91.98-24.62h72.77c3.85-4.25,9.31-7.49,16.77-7.41,1.48,7.71,6.57,15.29,18.12,20.12,18.27,4.07,29.28,28.16,9.74,51.4-17.5,15.95-28.94,33.73-15.69,58.97,6.4,7.6,12.8,5.51,19.21-.54,22.72-21.42,32.03-17.84,53.02-3.79,14.96,8.28,28.09,20.59,39.37,35.27,35.61,33.16,58.61,143.79,47.47,176.82-.98-1.38-2.22-2.45-2.1-5.2,4.84-36.09-10.29-65.18-20.71-95.93,11.01,31.56,23.28,62.93,18.58,96.84-2.47,5.55-4.1,6.91-5.79,8.53-10.53-28.46-23.31-54.46-52.38-67.61-19.58-11.58-38.63-23.61-54.21-40.81l-4.87,10.96-3.65-22.23c.42,10.03-1.04,18.8-5.48,25.58,2.27-9.24.41-18.47-2.13-27.71-1.09,8.75-4.79,13.14-8.22,17.97,2.54-7.54,2.51-15.72,1.83-24.06-1.6,5.1-3.6,9.68-7.61,11.57,3.38-8.73.88-17.46-2.13-26.19l-4.5,21.96Z"/>
          <path id="path2596" class="cls-21" d="m397.61,131.36c20.65-2.63,29.05,9.26,37.46,21.01,5.54,9.84,11.91,22.88,24.67,25.58-5.68,3.62-10.3-.18-15.23-1.83l12.49,10.05c-7.15-.97-14.35-1.5-20.71-10.35-.76-12.27-8.42-19.37-18.88-24.36-12.06-3.06-17.45-10.56-19.79-20.1Z"/>
          <path id="path2604" class="cls-18" d="m550.4,380.27l-4.7-11.31c-.74,2.57-.54,3.5,1.28,11.18-11.02-3.41-13.1-13.22-18.38-20.73,1.48,5.64,3.06,11.29,7.64,17.37-12.04-2.31-13.5-10.95-19.14-19.65,1.36,4.3,1.03,7.76,4.07,12.06-12.52-4.43-15.03-13.15-18.38-21.51-1.05,6.02,2.01,9.71,3.9,14.05-10.38,1.9-11.13-10.66-14.85-18.75-.9,3.22.42,8.23,1.72,13.22-9.28-4.69-10.19-11.77-12.67-19.87-.66,3.77-.85,7.79,1.17,12.91-9.86-3.44-12.62-13.97-16.43-23.47-.27,4.42.37,7.56,1.99,14.89-16.66-14.5-22.29-31.26-19.99-53.61,3.05-14.59,12.45-18.48,28.55-12.91-6.83-5.39-20.76-16.14-33.74-4.8-9.38,13.2-5.75,24.26-3.02,35.31l-10.79-6,16.17,11.15c1.95,3.06,1.33,4.4.78,5.8l-7.12-5.42,12.54,10.85c.07,2.52-.08,4.59-1.69,3.73l-9.83-7.8,13.9,13.56c1.37,2.99-.35,3.17-2.03,3.39l-6.1-4.75c3.24,7.06,11.71,12.47,15.59,18.98.89,2.02.02,2.73-1.36,3.05-2.37-3.49-4.75-4.85-7.12-6.1l9.15,13.9c.65,4.25-1.02,5.28-4.07,4.41-3.79-7.88-15.1-23.55-15.93-21.69,4.51,6.18,8.83,12.5,9.15,22.03-1.24,1.64-3.13.88-4.37,0l1.73,11.56,4.6-9.83c6.49,6.45,13.28,12.71,20.63,18.6,4.39,3.34,6.16,3.81,10.58,7.16l25.08,15.63c25.34,11.31,41.29,37.89,50.7,65.76,1.67-1.66,3.15-3.62,4.24-6.14-1.07.41,4.18.51,3.51-1.1,3.43-27.39-1.43-41.84-8.03-60.36,0,0-8.19-21.02-8.94-24.73Z"/>
          <path id="path2606" class="cls-7" d="m413.08,194.32c-3.51,5.39-9.93,7.63-15.04,13.92"/>
          <path id="path2608" class="cls-8" d="m391.48,208.05c-.03,5.02.86,9.13,2.5,12.49"/>
          <path id="path2610" class="cls-1" d="m385.86,216.48c1.27,4.88,2.71,9.68,5.62,13.74"/>
          <path id="path2612" class="cls-7" d="m382.43,225.23c.6,5.52,3.91,11.03,7.81,16.55"/>
          <path id="path2616" class="cls-1" d="m379.93,239.27c2.79,8.24,6.09,15.97,12.18,20.92"/>
          <path id="path2618" class="cls-4" d="m386.8,263c3.25,6.49,7.3,12.65,14.67,17.48"/>
          <path id="path2620" class="cls-4" d="m398.97,286.11c3.61,5.69,7.84,10.13,13.11,12.49"/>
          <path id="path2622" class="cls-4" d="m408.65,304.22c4.05,5.73,7.24,13.2,12.8,15.92"/>
          <path id="path2624" class="cls-22" d="m461.11,339.49c.29,7.34,3.69,13.58,10.36,17.52,2.54-1.42-1.58-10.45-.28-13.56-3.74,1.05-6.72-2.51-10.08-3.96Z"/>
          <path id="path2626" class="cls-22" d="m473.8,346.37c-.43,11.83,3.28,20.17,10.93,25.2,3.11-2.69-4.63-16.26-.96-20.73-4.25-.25-6.92-2.61-9.97-4.47Z"/>
          <path id="path2628" class="cls-22" d="m484.33,351.68c1.08,9.76,3.21,22.63,9.11,23.69,1.61-4.4-2.71-16.59.4-17.61-4.76-.44-6.77-3.62-9.51-6.07Z"/>
          <path id="path2630" class="cls-22" d="m494.86,358.76l8.3,5.87c-4.85.21,2.9,12.75,1.42,19.03-9.64-2.31-8.66-15.26-9.72-24.9Z"/>
          <path id="path2632" class="cls-22" d="m503.97,364.23c3.42-2.23,6.43-.03,9.31,3.64-5.43,5.7,6.75,21.61,5.87,25.51-9.67.05-18.01-24.32-15.18-29.15Z"/>
          <path id="path2634" class="cls-22" d="m514.29,368.68c-1.31,12.65,8.32,28.69,20.85,34.42,2.77-2.48-14.27-17.68-11.34-32.39-2.31.18-3.17,1.82-9.51-2.02Z"/>
          <path id="path2636" class="cls-22" d="m525.42,373.34c4.39,4.27,8.77,4.66,13.16,5.26-2.56,4.83,10.3,24.11,9.11,28.54-15.45-9.24-20.83-20.26-22.27-33.81Z"/>
          <path id="path2638" class="cls-22" d="m540,378.8c3.06,1.21,6.35,3.79,8.91,2.02l10.12,29.35c-8.63,3.41-15.63-19.89-20.04-30.97"/>
          <path id="path2592" class="cls-16" d="m309.38,139.64h72.47c7.06,2.66,5.34,13.16,11.55,17.85-31.33-5.35-60.58-11.07-84.02-17.85Z"/>
          <path id="path2598" class="cls-3" d="m353.15,144.46l21.62-.3"/>
          <path id="path2600" class="cls-5" d="m398.09,147.05c0,1.82-1.62,3.29-3.62,3.29s-3.62-1.47-3.62-3.29,1.62-3.29,3.62-3.29,3.62,1.47,3.62,3.29Z"/>
          <path id="path2602" class="cls-6" d="m395.18,146.9c0,.67-.55,1.22-1.22,1.22s-1.22-.55-1.22-1.22.55-1.22,1.22-1.22,1.22.55,1.22,1.22h0Z"/>
        </g>
        <path id="path3231" class="cls-22" d="m544.4,408.87c3.41-2.09,10.25,7.04,15.48,3.15,1.91,4.4,3.03,10.22,4.32,15.02,2.2,11.65,3.71,20.5,1.4,36.8l-3.96,8.39c2.18-29.8-6.52-47.69-17.24-63.36Z"/>
      </g>
      <g id="g3281">
        <path id="path3261" class="cls-24" d="m469.02,377.68l13.78,9.73c-14.02,5.73,2.1,26.24-10.94,30.8,2.23-.37,4.4-1.25,6.08-6.08.04,6.69-3.06,14.49-6.89,15.4,5.14-1.72,4.49-4.05,6.08-6.48-6.98,21.34-9.33,42.01-12.56,62.81.6,5.99-4.17,13.06,5.2,15.44,8.83,1.37,17.03-4.93,19.93-.45l-.81,6.08c-2.34,1.88-4.56.16-10.59-.25-6.45-.43-14.41-.62-17.38-2.59-8.01.7-19.1,12.01-31.2,11.35-3.01,1.11-4.56,2.14-8.12,1.56l-1.73-5.37c4.49-1.71,7.84.82,11.68.14,4.47-.79,9.04-2.87,13.97-4.84-32.73,2.58-30.43-.12-38.61,1.81-3.78,1.76-7.32,2.04-10.54.41l-1.29-5.31c5.12-2.34,10.8-2.89,17.61-.15,4.71,2.2,15.59.09,23.56-.44-2.89-3.1-9.54-4.39-17.49-5.24l-4.46.41.41-5.67c4.96-.3,10.18.46,16.21,4.46,7.57,1.5,20.77,6.15,24.72-3.65,4.02-19.22,9-37.47,8.92-60.79-1.03-7.43-1.66-11.89,2.03-19.75,5.69-8.32,1.69-23.05,2.43-33.34Z"/>
        <path id="path3263" class="cls-10" d="m414.67,491.25c-1.49-2.14-12.24.96-12.11,4.07,3.85-1.89,7.98-.72,12.11.55v-4.62Z"/>
        <path id="path3265" class="cls-10" d="m395.29,502.26l.88,4.95c-5.99-.94-9.29.59-11.78,2.86,2.28-3.51,3.58-7.67,10.9-7.82Z"/>
        <path id="path3267" class="cls-10" d="m419.95,509.97c-6.41,1.61-8.13,4.95-9.03,8.59,2.78-2.99,6.32-4.31,10.57-4.07l-1.54-4.51Z"/>
        <path id="path3269" class="cls-10" d="m490.46,499.5c6.59.4,8.91,3.36,10.46,6.78-3.28-2.43-7.01-3.07-11.14-2.06l.68-4.72Z"/>
      </g>
      <g id="g3288">
        <path id="path3290" class="cls-25" d="m473.63,367.59l17.6,9.9c-9.95,9.14,5.61,47.9-6.71,54.17,2.16-.67,4.19-1.83,5.21-6.84.94,6.62-1.08,14.77-4.76,16.18,4.86-2.39,3.91-4.61,5.15-7.24-4.06,22.08-3.61,47.66-4.02,68.7,1.4,5.85-2.38,13.5,7.22,14.6,8.94.18,16.21-7.17,19.69-3.12v6.13c-2.06,2.18-4.48.77-10.51,1.18-6.45.44-14.36,1.32-17.57-.23-7.85,1.77-16.48,12.28-28.73,16.61-2.83,1.5-3.39,4.41-7,4.32l-2.43-5.09c4.22-2.29,7.67-.72,10.76-3.11,3.31-2.56,7.9-5.23,12.53-7.85-32.08,6.95-30.17,3.96-38.02,6.97-3.51,2.25-6.98,3-10.39,1.82l-1.99-5.09c4.76-3,10.31-4.32,17.43-2.51,4.96,1.55,15.46-2.01,23.29-3.59-3.28-2.68-10.05-3.06-18.03-2.84l-4.36,1-.36-5.68c4.87-.96,10.15-.91,16.66,2.24,7.7.47,21.41,3.3,24.01-6.93,1.4-19.58,3.89-43.11.68-66.21-2.02-7.22-3.24-11.56-.64-19.84,4.52-11.12-.89-46.83-4.71-57.66Z"/>
        <path id="path3292" class="cls-15" d="m437.65,516.49c-1.76-1.92-12,2.59-11.45,5.66,3.56-2.39,7.81-1.78,12.08-1.08l-.62-4.58Z"/>
        <path id="path3294" class="cls-15" d="m419.93,530.01l1.54,4.79c-6.06-.13-9.12,1.84-11.29,4.42,1.78-3.78,2.52-8.08,9.75-9.21Z"/>
        <path id="path3296" class="cls-15" d="m446.41,537.36c-6.13,2.46-7.4,5.99-7.79,9.72,2.35-3.34,5.69-5.12,9.93-5.46l-2.13-4.27Z"/>
        <path id="path3298" class="cls-15" d="m513.86,514.5c6.59-.49,9.28,2.14,11.27,5.31-3.58-1.97-7.36-2.1-11.31-.54l.04-4.77Z"/>
      </g>
    </g>
  </g>
</svg>