<?xml version="1.0" encoding="UTF-8"?>
<svg id="Warstwa_1" data-name="Warstwa 1" xmlns="http://www.w3.org/2000/svg" viewBox="0 0 1446.02 508">
  <defs>
    <style>
      .cls-1, .cls-2, .cls-3, .cls-4, .cls-5, .cls-6, .cls-7, .cls-8, .cls-9, .cls-10, .cls-11, .cls-12, .cls-13, .cls-14 {
        stroke-width: 2px;
      }

      .cls-1, .cls-2, .cls-3, .cls-4, .cls-5, .cls-7, .cls-8, .cls-10, .cls-11, .cls-12, .cls-13, .cls-14, .cls-15 {
        stroke: #000;
      }

      .cls-1, .cls-9, .cls-11, .cls-13 {
        stroke-linecap: round;
      }

      .cls-2, .cls-3, .cls-4, .cls-5, .cls-6, .cls-7, .cls-8, .cls-16, .cls-10, .cls-12, .cls-15 {
        fill-rule: evenodd;
      }

      .cls-17, .cls-5 {
        fill: #fff;
      }

      .cls-3 {
        fill: #00ac4e;
      }

      .cls-4 {
        fill: #00ab4e;
      }

      .cls-6, .cls-16 {
        fill: #fdaf17;
        stroke: #010000;
      }

      .cls-7 {
        fill: #ffc800;
      }

      .cls-8 {
        fill: #0e8d49;
      }

      .cls-9 {
        stroke: #504e4b;
      }

      .cls-9, .cls-13, .cls-14 {
        fill: none;
      }

      .cls-16, .cls-15 {
        stroke-miterlimit: 4;
        stroke-width: 2px;
      }

      .cls-10 {
        fill: #252122;
      }

      .cls-11 {
        fill: #feffff;
      }

      .cls-12 {
        fill: #d6ac00;
      }
    </style>
  </defs>
  <g id="g3342">
    <g id="g3141">
      <path id="path1334" class="cls-7" d="m208.58,1.01L1,2.05v311.9c8.59,101.09,96.79,196.18,207.58,192.98V1.01Z"/>
      <path id="path2482" class="cls-4" d="m89.9,119.3l.3-16.14c.31-6.51-3.57-7.28-6.57-5.08-3.34,2.45-6.02.25-4.78-8.67,1.75-11.37-5.94-13.32-8.37-8.37-3.75,6.22-6.34.92-5.08-5.98,1.3-11.67-6.16-14.72-10.16-7.77-4.09,5.36-6.45,4.28-7.47-1.79-.27-5.43-5.23-5.39-10.16-5.38-5.41.87-8.43,4.12-9.86,8.97-1.18,6.5,1.62,9.22,6.28,10.16,5.54-.21,9.2,3.99,1.79,8.07-6.48,4.08-6.89,10.38,6.57,9.86,13.07-2.23,10.49,3.77,7.17,4.78-7.27,3.88-.45,10.04,10.16,8.37,10.52-1.28,13.09,3.21,9.26,4.78-4.77,4.36-.12,8.31,8.07,6.28,4.38-.89,8.74-1.74,12.85-2.09Z"/>
      <path id="path2486" class="cls-4" d="m89.79,229.48l.33-17.63c.34-7.12-3.94-7.96-7.26-5.55-3.69,2.68-6.64.28-5.28-9.47,1.93-12.43-6.56-14.56-9.24-9.14-4.14,6.8-7,1.01-5.61-6.53,1.43-12.76-6.8-16.08-11.22-8.49-4.52,5.86-7.12,4.68-8.25-1.96-.29-5.94-5.78-5.89-11.22-5.88-5.97.95-9.31,4.5-10.89,9.8-1.31,7.11,1.79,10.07,6.93,11.1,6.12-.23,10.16,4.36,1.98,8.82-7.16,4.46-7.61,11.34,7.26,10.78,14.43-2.44,11.58,4.12,7.92,5.22-8.03,4.24-.5,10.97,11.22,9.14,11.61-1.4,14.46,3.51,10.23,5.22-5.27,4.77-.13,9.08,8.91,6.86,4.84-.99,9.65-1.91,14.19-2.29Z"/>
      <path id="path2488" class="cls-4" d="m90.84,312.99l-4.82-16.18c-1.76-6.59-5.96-6.16-8.34-3.03-2.64,3.47-6.07,2.11-7.65-7.16-1.83-11.88-10.31-11.45-11.22-5.76-1.86,7.36-6.19,2.88-7.1-4.39-2.38-12.04-10.98-12.77-12.87-4.61-2.48,6.61-5.24,6.26-8.21.52-2-5.34-7.06-3.76-12.11-2.22-5.26,2.54-7.32,6.71-7.24,11.99.86,6.85,4.58,8.69,9.65,8.19,5.6-1.92,10.68,1.13,4.4,7.49-5.33,6.07-3.75,12.48,9.86,7.8,12.66-6.26,11.93.51,8.86,2.55-6.21,6.11,2.73,10.15,13.06,5.2,10.35-4.53,14.42-.84,11,1.91-3.5,5.83,2.52,8.32,10.25,3.76,4.2-2.25,8.39-4.44,12.48-6.06Z"/>
      <path id="path2490" class="cls-4" d="m116.45,123.27l2.62-15.93c.87-6.46,4.82-6.52,7.38-3.81,2.85,3.01,5.87,1.34,6.27-7.66.34-11.5,8.25-12.03,9.74-6.72,2.56,6.79,6.07,2.05,6.08-4.96.83-11.72,8.72-13.36,11.4-5.81,3.05,6.01,5.57,5.38,7.67-.41,1.24-5.3,6.12-4.35,10.97-3.45,5.16,1.83,7.55,5.57,8.08,10.6-.01,6.61-3.26,8.78-8.01,8.86-5.41-1.21-9.77,2.26-3.22,7.61,5.64,5.19,4.9,11.46-8.25,8.51-12.45-4.55-11,1.81-7.92,3.41,6.45,5.13-1.37,9.96-11.51,6.39-10.11-3.16-13.46.79-9.98,3.03,3.91,5.15-1.38,8.19-9.07,4.71-4.14-1.67-8.28-3.28-12.25-4.37Z"/>
      <path id="path2492" class="cls-4" d="m123.66,220.57l1.18-17.6c.27-7.12,4.6-7.59,7.71-4.91,3.45,2.98,6.6.84,6.07-8.98-.86-12.55,7.78-13.95,9.99-8.32,3.54,7.13,6.89,1.6,6.15-6.03-.34-12.83,8.15-15.44,11.91-7.5,4,6.22,6.7,5.27,8.39-1.25.8-5.89,6.26-5.37,11.68-4.9,5.87,1.45,8.89,5.28,10.01,10.69.69,7.19-2.64,9.88-7.85,10.47-6.08-.75-10.5,3.47-2.73,8.62,6.75,5.06,6.61,11.95-8.16,10.12-14.17-3.66-11.89,3.11-8.34,4.53,7.64,4.91-.44,10.97-11.96,8.15-11.45-2.39-14.71,2.26-10.64,4.33,4.84,5.2-.64,9.05-9.46,6.07-4.75-1.39-9.46-2.72-13.95-3.49Z"/>
      <path id="path2221" class="cls-3" d="m101.43,103.84l-.04,24.97c-19.81-21.84-39.69-44.44-64.56-59.37,22.49,20,42.27,41.36,61.87,62.8l-9.96-5.49-2.35,2.54c5.07,3.79,12.79,6.69,11.73,12.52l-6.06-2.35-.78,3.13c3.65,2.12,7.79,3.9,6.45,9.58l-.2,14.08-2.54,2.35-10.56-10.37-2.35,3.32,13.1,13.89-8.61-4.11-.98,2.93c5.4,3.05,11.02,5.83,12.13,13.89l-1.76,46.35c-18.66-19.16-39.07-41.91-61.21-56.91l62,64.15-7.43-5.08-2.93,2.93c5.96,1.95,10.04,6.2,9.39,16.23l.2,9-11.54-8.02-.98,4.89,13.49,9.97-8.8-1.76-1.56,3.13c5.37.59,9.48,2.9,9,11.54l-.39,27.18c-23.4-12.33-46.81-20.79-70.21-28.75l64.34,32.27,4.89,9.39v32.07c-.58,13.69-4.69,40.07-11.15,40.48l-6.84.59c-2.52,2.25-5.37,1.92-8.41,0-6.23-5.22-9.51-1.98-12.13,3.13,2.84-1.5,5.65-3.32,9-.78l6.06-.59c-10.07,1.49-7.59,7.62-8.41,12.52,3.71-8.52,9.97-8.13,15.65-9.78,10.67,2.36,12.67-4.53,15.84-10.17-2.47,5.51-2.73,12.56-11.54,13.69-9.17-.99-9.61,4.32-9.58,9.97,1.03-6.09,8.78-8.16,14.67-11.34-6.2,5.04-9.18,9.69-7.04,13.69,2.71-4.42,5.08-9.34,9.78-10.76,4.38-2.14,6.42-6.62,8.8-10.76.88,4,2.34,8.15-.78,11.15-2.12,4.68-.2,8.02.59,11.73.99-7.63,4.94-11.32,9-14.86-4.33,6.13-1.77,9.68,2.15,12.71-.74-4.33-.73-8.44,2.15-11.73-.6-4.53.8-7.72,3.32-10.17,3.84,7.85,4.48,16.76,5.28,25.62,1.08-3.39,3.1-6.4,1.76-10.76,4.35,1.72,6.9,5.68,9.19,9.97.76-8.75-9.92-13.04-10.56-24.84,2.24,4.3,1.73,11.85,9.19,9.97,6.01-.03,7.08,3.08,7.43,6.65-1.37,3.68.86,5.57,4.69,6.65-1.5-2.9-2.73-5.97-2.15-9.39,3.82.27,5.34,7.99,9,9.39,1.72.23,3.08.08,2.74-1.76-4.7-2.2-6.44-11.47-10.76-11.15-4.39-1.47-7.06-4.22-9.39-7.24,7.44-4.47,12.06-1.39,16.43,2.35,4.32,4.48,12.24,7.46,10.95,14.28l1.76.2,1.56-4.89c2.12,3.62,4.15,7.25,8.8,10.37l3.52-.98c-3.33-2.79-5.73-5.95-6.45-9.78-1.17-2.16-1.72-4.83-5.87-4.5-5.51-1.61-8.11-4.68-10.56-7.82-4.17-5-9.59-6.59-15.84-5.87-14.34-.59-10.18-10.43-13.3-16.62l.05-38.03c2.62-8.78,8.05-11.93,13.55-14.94-5.91-1.07-11.69-.61-16.87,6.36l-.55-55.87c3.58-8.34,8.53-13.25,13.55-17.98l-2.49-5.53-10.51,11.89-3.04-1.38c-3.11-18.87,5.1-21.89,12.72-25.72l-1.38-4.43-10.79,7.47c18.95-23.63,40.35-45.78,66.66-65-23.61,13.82-50.4,32.32-70.53,58.63v-48.95c2-6.37,6.37-8.8,10.51-11.62l-2.21-3.6-7.19,3.32,16.32-14.66-2.49-4.7-17.98,15.21.83-19.36c1.04-5.47,4.27-6.58,6.64-9.4l-1.94-3.87-5.26,3.87c19.86-22.06,45.77-37.2,70.53-53.66-28.36,13.13-55.7,27.57-76.06,50.89l1.38-30.42-4.79.02Z"/>
      <path id="path2494" class="cls-4" d="m120.04,310.18l3.55-16.51c1.24-6.71,5.46-6.61,8.08-3.68,2.91,3.26,6.22,1.63,7.06-7.74.89-11.99,9.38-12.22,10.74-6.62,2.43,7.19,6.4,2.39,6.73-4.93,1.44-12.19,9.95-13.59,12.47-5.6,2.99,6.39,5.71,5.83,8.23-.12,1.58-5.48,6.75-4.3,11.89-3.16,5.44,2.12,7.82,6.12,8.15,11.38-.32,6.9-3.89,9.02-8.98,8.92-5.74-1.48-10.56,1.96-3.8,7.81,5.79,5.64,4.71,12.15-9.22,8.55-13.11-5.25-11.85,1.45-8.63,3.24,6.67,5.61-1.93,10.33-12.61,6.21-10.67-3.7-14.44.29-10.82,2.76,3.94,5.53-1.86,8.49-9.92,4.55-4.37-1.91-8.72-3.76-12.92-5.06Z"/>
      <path id="path2225" class="cls-3" d="m112.03,315.71c20.78-17.55,46.32-28.46,70.53-41.21-24.25,14.29-47.98,28.99-68.59,46.19"/>
      <path id="path2293" class="cls-4" d="m92.34,87.5l25.31.8c-.16-11.72,4.34-32.9-11.45-34.63-15.62,1.54-13.11,18.76-13.86,33.83Z"/>
      <path id="path2227" class="cls-8" d="m88.51,87.53h33.13c-.67,9.25-4.07,17.24-17.83,17.62-15.73-1.26-15.06-11.53-15.3-17.62Z"/>
      <path id="path2229" class="cls-8" d="m113.48,87.76l6.43,6.97"/>
      <path id="path2231" class="cls-8" d="m105.64,87.81l11.87,11.51"/>
      <path id="path2233" class="cls-8" d="m97.74,87.32l15.5,15.5"/>
      <path id="path2235" class="cls-8" d="m90.64,87.6l16.74,16.91"/>
      <path id="path2239" class="cls-8" d="m88.72,91.93l11.53,12.37"/>
      <path id="path2241" class="cls-8" d="m119.2,87.33l-17.73,17.09"/>
      <path id="path2243" class="cls-8" d="m112.2,87.58l-15.84,15.41"/>
      <path id="path2245" class="cls-8" d="m105.56,87.58l-13.07,12.53"/>
      <path id="path2247" class="cls-8" d="m97.95,87.32l-8.39,8.6"/>
      <path id="path2249" class="cls-8" d="m90.97,87.7l-2.46,2.98"/>
      <path id="path2291" class="cls-8" d="m120.59,92.91l-12.17,11.61"/>
      <path id="path2295" class="cls-1" d="m107.8,52.2c0,.66-.6,1.2-1.33,1.2s-1.33-.54-1.33-1.2.6-1.2,1.33-1.2,1.33.54,1.33,1.2Z"/>
      <path id="path2316" class="cls-4" d="m60.22,162.32l17.05-22.35c-9.63-6.68-23.93-23.08-35.57-9.85-8.87,14.98,6.76,22.75,18.52,32.2Z"/>
      <g id="g3070">
        <path id="path2320" class="cls-8" d="m58.84,164.31l19.32-26.92c7.12,5.93,11.63,13.36,3.92,24.75-10.2,12.06-18.15,5.53-23.24,2.17Z"/>
        <path id="path2322" class="cls-8" d="m73.59,144.16l9.42-1.16"/>
        <path id="path2324" class="cls-8" d="m69.06,150.56l16.27-2.93"/>
        <path id="path2326" class="cls-8" d="m64.05,156.69l21.63-3.55"/>
        <path id="path2328" class="cls-8" d="m60.14,162.62l23.5-3.74"/>
        <path id="path2332" class="cls-8" d="m62.54,166.71l16.78-2.15"/>
        <path id="path2334" class="cls-8" d="m76.58,139.26l3.54,24.37"/>
        <path id="path2336" class="cls-8" d="m72.7,145.1l3.28,21.85"/>
        <path id="path2338" class="cls-8" d="m68.82,150.49l2.56,17.92"/>
        <path id="path2340" class="cls-8" d="m64.17,156.52l2.09,11.83"/>
        <path id="path2342" class="cls-8" d="m60.41,162.41l.98,3.74"/>
        <path id="path2344" class="cls-8" d="m81.92,141.39l2.34,16.66"/>
      </g>
      <path id="path2348" class="cls-4" d="m151.07,160.1l-13.18-26.03c10.79-4.62,27.93-17.95,37.29-2.21,6.27,16.9-10.71,21.31-24.11,28.24Z"/>
      <path id="path2352" class="cls-8" d="m151.74,161.95l-13.86-30.1c-8.12,4.47-13.96,10.91-8.55,23.56,7.73,13.77,16.77,8.87,22.41,6.54Z"/>
      <path id="path2354" class="cls-8" d="m141.08,139.37l-9.02-2.93"/>
      <path id="path2356" class="cls-8" d="m144.31,146.51l-15.42-5.96"/>
      <path id="path2358" class="cls-8" d="m148.07,153.48l-20.56-7.6"/>
      <path id="path2360" class="cls-8" d="m150.78,160.04l-22.36-8.13"/>
      <path id="path2364" class="cls-8" d="m147.65,163.6l-16.06-5.3"/>
      <path id="path2366" class="cls-8" d="m139.08,133.98l-8.11,23.25"/>
      <path id="path2368" class="cls-8" d="m141.78,140.45l-7.38,20.83"/>
      <path id="path2370" class="cls-8" d="m144.56,146.48l-5.92,17.11"/>
      <path id="path2372" class="cls-8" d="m147.98,153.29l-4.3,11.22"/>
      <path id="path2374" class="cls-8" d="m150.55,159.78l-1.67,3.48"/>
      <path id="path2376" class="cls-8" d="m133.44,135.06l-5.46,15.91"/>
      <path id="path2380" class="cls-4" d="m152.6,258.58l-12.36-25.25c10.79-4.57,28.11-17.68,36.95-2.42,5.76,16.4-11.15,20.83-24.59,27.67Z"/>
      <g id="g3126">
        <path id="path2384" class="cls-8" d="m153.51,260.87l-13.56-30.23c-8.17,4.39-14.07,10.77-8.78,23.47,7.59,13.84,16.68,9.03,22.34,6.76Z"/>
        <path id="path2386" class="cls-8" d="m143.08,238.18l-8.99-3.02"/>
        <path id="path2388" class="cls-8" d="m146.24,245.35l-15.36-6.12"/>
        <path id="path2390" class="cls-8" d="m149.93,252.36l-20.48-7.8"/>
        <path id="path2392" class="cls-8" d="m152.57,258.95l-22.28-8.35"/>
        <path id="path2396" class="cls-8" d="m149.41,262.48l-16.01-5.46"/>
        <path id="path2398" class="cls-8" d="m141.13,232.78l-8.34,23.17"/>
        <path id="path2400" class="cls-8" d="m143.77,239.27l-7.58,20.76"/>
        <path id="path2402" class="cls-8" d="m146.49,245.33l-6.09,17.05"/>
        <path id="path2404" class="cls-8" d="m149.84,252.17l-4.41,11.17"/>
        <path id="path2406" class="cls-8" d="m152.35,258.69l-1.71,3.47"/>
        <path id="path2408" class="cls-8" d="m135.47,233.79l-5.62,15.86"/>
      </g>
      <path id="path2444" class="cls-4" d="m61.21,266.95l12.36-25.25c-10.79-4.57-28.11-17.68-36.95-2.42-5.76,16.4,11.15,20.83,24.59,27.67Z"/>
      <g id="g3098">
        <path id="path2448" class="cls-8" d="m60.3,269.23l13.56-30.23c8.17,4.39,14.07,10.77,8.78,23.47-7.59,13.85-16.68,9.04-22.34,6.76Z"/>
        <path id="path2450" class="cls-8" d="m70.73,246.55l8.99-3.02"/>
        <path id="path2452" class="cls-8" d="m67.57,253.72l15.36-6.12"/>
        <path id="path2454" class="cls-8" d="m63.88,260.73l20.48-7.8"/>
        <path id="path2456" class="cls-8" d="m61.24,267.32l22.28-8.35"/>
        <path id="path2460" class="cls-8" d="m64.4,270.84l16.01-5.46"/>
        <path id="path2462" class="cls-8" d="m72.68,241.14l8.34,23.17"/>
        <path id="path2464" class="cls-8" d="m70.04,247.64l7.58,20.76"/>
        <path id="path2466" class="cls-8" d="m67.32,253.69l6.09,17.05"/>
        <path id="path2468" class="cls-8" d="m63.97,260.54l4.41,11.17"/>
        <path id="path2470" class="cls-8" d="m61.46,267.05l1.71,3.47"/>
        <path id="path2472" class="cls-8" d="m78.34,242.16l5.62,15.86"/>
      </g>
      <path id="path2474" class="cls-1" d="m178.03,131.7c0,.66-.6,1.2-1.33,1.2s-1.33-.54-1.33-1.2.6-1.2,1.33-1.2,1.33.53,1.33,1.2Z"/>
      <path id="path2476" class="cls-1" d="m42.35,128.71c0,.66-.6,1.2-1.33,1.2s-1.33-.54-1.33-1.2.6-1.2,1.33-1.2,1.33.53,1.33,1.2Z"/>
      <path id="path2478" class="cls-1" d="m38.16,238.09c0,.66-.6,1.2-1.33,1.2s-1.33-.54-1.33-1.2.6-1.2,1.33-1.2,1.33.53,1.33,1.2Z"/>
      <path id="path2480" class="cls-1" d="m178.92,232.41c0,.66-.6,1.2-1.33,1.2s-1.33-.54-1.33-1.2.6-1.2,1.33-1.2,1.33.54,1.33,1.2Z"/>
      <path id="path2484" class="cls-14" d="m65.1,73.88h-.3"/>
    </g>
    <g id="g3300">
      <path id="path2209" class="cls-3" d="m210.34,1.01l207.58,1.04v311.9c-8.59,101.09-96.79,196.18-207.58,192.98V1.01Z"/>
      <g id="g3233">
        <g id="g2640">
          <path id="path2594" class="cls-5" d="m296.41,251.63c1.54-21.87-10.61-35.92-19.27-51.96-16.32-30.21-2.86-53.06,11.48-61.89,8.65-7.36,9.79-18.79-3.31-22.77l-66.17-17.71h52.35c2.77-3.06,6.7-5.39,12.07-5.33,1.06,5.54,4.72,11,13.04,14.48,13.15,2.93,21.06,20.26,7.01,36.98-12.59,11.47-20.82,24.26-11.29,42.43,4.61,5.46,9.21,3.97,13.82-.39,16.34-15.41,23.04-12.83,38.14-2.72,10.76,5.95,20.21,14.81,28.32,25.38,25.62,23.85,42.16,103.45,34.15,127.2-.71-.99-1.59-1.76-1.51-3.74,3.49-25.96-7.4-46.89-14.9-69.01,7.92,22.7,16.75,45.27,13.36,69.67-1.78,3.99-2.95,4.97-4.16,6.13-7.58-20.47-16.77-39.18-37.68-48.64-14.09-8.33-27.79-16.99-39-29.36l-3.51,7.89-2.63-15.99c.3,7.21-.74,13.52-3.94,18.4,1.63-6.65.3-13.29-1.53-19.94-.78,6.29-3.44,9.45-5.92,12.93,1.83-5.42,1.81-11.31,1.31-17.31-1.15,3.67-2.59,6.97-5.48,8.33,2.43-6.28.63-12.56-1.53-18.84l-3.22,15.78Z"/>
          <path id="path2596" class="cls-10" d="m283.22,91.67c14.86-1.89,20.9,6.66,26.95,15.12,3.99,7.08,8.57,16.46,17.75,18.4-4.09,2.61-7.41-.13-10.95-1.31l8.98,7.23c-5.14-.7-10.32-1.08-14.9-7.45-.55-8.83-6.05-13.93-13.58-17.53-8.69-2.2-12.56-7.6-14.25-14.46Z"/>
          <path id="path2604" class="cls-10" d="m393.14,270.74l-3.38-8.14c-.53,1.85-.39,2.52.92,8.05-7.93-2.46-9.42-9.51-13.22-14.91,1.07,4.05,2.2,8.12,5.5,12.49-8.66-1.66-9.71-7.87-13.77-14.13.98,3.1.74,5.58,2.93,8.68-9.01-3.19-10.82-9.46-13.22-15.48-.75,4.33,1.44,6.98,2.8,10.11-7.47,1.37-8.01-7.67-10.68-13.49-.65,2.32.3,5.92,1.24,9.51-6.67-3.38-7.33-8.47-9.12-14.29-.48,2.72-.61,5.6.84,9.29-7.09-2.47-9.08-10.05-11.82-16.88-.2,3.18.27,5.44,1.44,10.71-11.99-10.43-16.03-22.49-14.38-38.57,2.2-10.5,8.96-13.3,20.54-9.29-4.91-3.88-14.93-11.61-24.27-3.45-6.75,9.5-4.13,17.45-2.18,25.4l-7.77-4.31,11.63,8.02c1.4,2.2.96,3.17.56,4.17l-5.12-3.9,9.02,7.8c.05,1.81-.06,3.3-1.22,2.68l-7.07-5.61,10,9.75c.99,2.15-.25,2.28-1.46,2.44l-4.39-3.41c2.33,5.08,8.42,8.97,11.22,13.66.64,1.45.01,1.96-.98,2.19-1.71-2.51-3.41-3.49-5.12-4.39l6.58,10c.47,3.06-.74,3.8-2.93,3.17-2.73-5.67-10.86-16.94-11.46-15.61,3.24,4.44,6.35,9,6.58,15.85-.89,1.18-2.25.63-3.14,0l1.25,8.32,3.31-7.07c4.67,4.64,9.55,9.14,14.84,13.38,3.16,2.4,4.43,2.74,7.61,5.15l18.04,11.24c18.23,8.14,29.71,27.26,36.47,47.31,1.2-1.19,2.26-2.6,3.05-4.42-.77.3,3.01.36,2.53-.79,2.46-19.71-1.03-30.1-5.77-43.42,0-.02-5.9-15.14-6.43-17.81Z"/>
          <path id="path2606" class="cls-13" d="m294.34,136.96c-2.52,3.88-7.15,5.49-10.82,10.01"/>
          <path id="path2608" class="cls-13" d="m278.81,146.84c-.02,3.61.62,6.57,1.8,8.98"/>
          <path id="path2610" class="cls-13" d="m274.76,152.91c.91,3.51,1.95,6.96,4.04,9.88"/>
          <path id="path2612" class="cls-13" d="m272.29,159.2c.43,3.97,2.82,7.94,5.62,11.9"/>
          <path id="path2616" class="cls-13" d="m270.5,169.3c2.01,5.93,4.38,11.49,8.76,15.05"/>
          <path id="path2618" class="cls-13" d="m275.44,186.38c2.34,4.67,5.25,9.1,10.56,12.58"/>
          <path id="path2620" class="cls-13" d="m284.2,203c2.6,4.09,5.64,7.29,9.43,8.98"/>
          <path id="path2622" class="cls-13" d="m291.16,216.02c2.92,4.13,5.21,9.5,9.21,11.46"/>
          <path id="path2624" class="cls-5" d="m328.9,241.4c.21,5.28,2.65,9.77,7.45,12.6,1.83-1.02-1.14-7.52-.2-9.75-2.69.75-4.83-1.81-7.25-2.85Z"/>
          <path id="path2626" class="cls-5" d="m338.03,246.35c-.31,8.51,2.36,14.51,7.86,18.13,2.24-1.93-3.33-11.7-.69-14.92-3.06-.18-4.98-1.88-7.17-3.21Z"/>
          <path id="path2628" class="cls-5" d="m345.6,250.17c.77,7.02,2.31,16.28,6.55,17.04,1.16-3.17-1.95-11.93.29-12.67-3.41-.32-4.86-2.61-6.84-4.37Z"/>
          <path id="path2630" class="cls-5" d="m353.18,255.26l5.97,4.22c-3.49.15,2.08,9.17,1.02,13.69-6.93-1.66-6.23-10.97-6.99-17.91Z"/>
          <path id="path2632" class="cls-5" d="m359.73,259.2c2.46-1.6,4.63-.02,6.7,2.62-3.91,4.1,4.86,15.54,4.22,18.35-6.95.04-12.95-17.5-10.92-20.97Z"/>
          <path id="path2634" class="cls-5" d="m367.16,262.4c-.95,9.1,5.98,20.64,15,24.76,1.99-1.78-10.27-12.72-8.16-23.3-1.66.13-2.28,1.31-6.84-1.46Z"/>
          <path id="path2636" class="cls-5" d="m375.17,265.75c3.16,3.07,6.31,3.35,9.47,3.79-1.84,3.47,7.41,17.34,6.55,20.54-11.12-6.66-14.98-14.58-16.02-24.33Z"/>
          <path id="path2638" class="cls-5" d="m385.65,269.68c2.2.87,4.56,2.73,6.41,1.46l7.28,21.12c-6.21,2.46-11.24-14.31-14.42-22.28"/>
          <path id="path2592" class="cls-12" d="m219.75,97.63h52.13c5.08,1.92,3.84,9.47,8.31,12.84-22.54-3.84-43.58-7.96-60.44-12.84Z"/>
          <path id="path2598" class="cls-9" d="m251.23,101.09l15.55-.22"/>
          <path id="path2600" class="cls-11" d="m283.56,102.96c0,1.31-1.17,2.37-2.61,2.37s-2.61-1.06-2.61-2.37,1.17-2.37,2.61-2.37c1.45,0,2.61,1.06,2.61,2.37Z"/>
          <path id="path2602" class="cls-1" d="m281.47,102.85c0,.48-.39.88-.88.88s-.88-.39-.88-.88.39-.88.88-.88.88.39.88.88h0Z"/>
        </g>
        <path id="path3231" class="cls-5" d="m388.83,291.32c2.46-1.51,7.38,5.06,11.13,2.27,1.37,3.16,2.18,7.35,3.11,10.81,1.59,8.38,2.67,14.75,1.01,26.48l-2.85,6.03c1.56-21.45-4.69-34.32-12.4-45.59Z"/>
      </g>
      <g id="g3281">
        <path id="path3261" class="cls-6" d="m334.59,268.88l9.91,7c-10.08,4.12,1.51,18.88-7.87,22.16,1.61-.27,3.17-.9,4.37-4.37.03,4.81-2.2,10.42-4.96,11.08,3.7-1.24,3.23-2.91,4.37-4.66-5.02,15.35-6.71,30.22-9.04,45.19.44,4.31-3,9.39,3.74,11.11,6.35.99,12.25-3.55,14.34-.32l-.58,4.37c-1.69,1.35-3.28.11-7.62-.18-4.64-.31-10.37-.45-12.5-1.86-5.76.5-13.74,8.64-22.45,8.16-2.16.8-3.28,1.54-5.85,1.12l-1.24-3.87c3.23-1.23,5.64.59,8.41.1,3.21-.57,6.5-2.06,10.05-3.48-23.54,1.86-21.89-.09-27.78,1.3-2.72,1.26-5.27,1.46-7.58.29l-.93-3.82c3.68-1.68,7.77-2.08,12.67-.1,3.39,1.58,11.22.06,16.95-.31-2.08-2.23-6.87-3.15-12.58-3.77l-3.21.29.29-4.08c3.57-.22,7.32.33,11.66,3.21,5.45,1.08,14.94,4.42,17.78-2.62,2.89-13.82,6.48-26.95,6.41-43.73-.74-5.35-1.2-8.56,1.46-14.21,4.13-6,1.25-16.6,1.78-24Z"/>
        <path id="path3263" class="cls-2" d="m295.49,350.58c-1.07-1.54-8.8.69-8.71,2.93,2.77-1.36,5.74-.52,8.71.4v-3.33Z"/>
        <path id="path3265" class="cls-2" d="m281.55,358.5l.63,3.56c-4.31-.68-6.68.43-8.47,2.06,1.64-2.52,2.57-5.51,7.84-5.62Z"/>
        <path id="path3267" class="cls-2" d="m299.29,364.05c-4.61,1.16-5.85,3.56-6.49,6.18,2-2.15,4.55-3.1,7.6-2.93l-1.11-3.25Z"/>
        <path id="path3269" class="cls-2" d="m350.02,356.52c4.74.29,6.41,2.42,7.52,4.88-2.36-1.75-5.04-2.21-8.01-1.48l.49-3.4Z"/>
      </g>
      <g id="g3288">
        <path id="path3290" class="cls-16" d="m337.91,261.61l12.66,7.13c-7.16,6.57,4.03,34.46-4.82,38.97,1.56-.48,3.02-1.32,3.74-4.92.68,4.76-.78,10.62-3.43,11.65,3.5-1.73,2.81-3.32,3.71-5.2-2.91,15.88-2.59,34.29-2.89,49.43,1.01,4.21-1.71,9.71,5.2,10.51,6.43.13,11.66-5.16,14.17-2.24v4.41c-1.48,1.56-3.22.55-7.56.84-4.64.32-10.34.95-12.64-.17-5.64,1.27-11.85,8.83-20.66,11.95-2.03,1.08-2.44,3.18-5.04,3.1l-1.75-3.67c3.04-1.65,5.52-.52,7.74-2.24,2.39-1.84,5.69-3.77,9.01-5.65-23.08,5-21.7,2.85-27.35,5.02-2.53,1.61-5.03,2.15-7.47,1.3l-1.43-3.66c3.42-2.16,7.42-3.1,12.54-1.8,3.57,1.11,11.13-1.45,16.76-2.58-2.36-1.93-7.23-2.2-12.97-2.05l-3.14.72-.26-4.08c3.51-.7,7.3-.66,11.99,1.62,5.55.34,15.4,2.37,17.27-4.98,1.01-14.08,2.8-31.02.48-47.63-1.45-5.19-2.34-8.32-.46-14.28,3.26-8.01-.62-33.7-3.37-41.49Z"/>
        <path id="path3292" class="cls-15" d="m312.03,368.74c-1.27-1.38-8.63,1.86-8.24,4.07,2.56-1.72,5.62-1.29,8.68-.77l-.45-3.3Z"/>
        <path id="path3294" class="cls-15" d="m299.27,378.46l1.1,3.44c-4.36-.1-6.56,1.32-8.12,3.18,1.29-2.72,1.82-5.82,7.01-6.62Z"/>
        <path id="path3296" class="cls-15" d="m318.33,383.75c-4.41,1.77-5.32,4.31-5.6,7,1.69-2.4,4.09-3.68,7.14-3.92l-1.54-3.07Z"/>
        <path id="path3298" class="cls-15" d="m366.86,367.3c4.74-.35,6.68,1.54,8.11,3.83-2.57-1.42-5.29-1.51-8.14-.39l.03-3.43Z"/>
      </g>
    </g>
  </g>
  <g>
    <path class="cls-17" d="m527.41,187.82V47.64h26.03v140.18h-26.03Zm23.03-33.04l-1.2-30.84,73.3-76.3h29.44l-61.08,64.88-14.42,15.82-26.04,26.44Zm74.7,33.04l-53.87-63.88,17.42-19.02,67.09,82.91h-30.64Z"/>
    <path class="cls-17" d="m669.2,187.82v-106.94h23.83v29.44l-2.8-8.61c3.07-7.21,8.08-12.72,15.02-16.52s15.42-5.71,25.43-5.71v23.83c-.94-.13-1.87-.23-2.8-.3-.94-.07-1.8-.1-2.6-.1-9.61,0-17.22,2.74-22.83,8.21-5.61,5.48-8.41,13.82-8.41,25.03v51.67h-24.84Z"/>
    <path class="cls-17" d="m798.37,189.23c-9.08,0-17.09-1.7-24.03-5.11-6.94-3.4-12.38-8.61-16.32-15.62s-5.91-15.85-5.91-26.54v-61.08h25.23v57.88c0,9.48,2.2,16.59,6.61,21.33s10.54,7.11,18.42,7.11c5.87,0,11.01-1.2,15.42-3.61,4.41-2.4,7.81-6.01,10.21-10.81,2.4-4.81,3.6-10.75,3.6-17.82v-54.07h25.03v106.94h-23.83v-29.04l4.21,9.01c-3.6,6.81-8.88,12.08-15.82,15.82-6.94,3.74-14.55,5.61-22.82,5.61Z"/>
    <path class="cls-17" d="m922.73,189.23c-9.08,0-17.69-1.17-25.83-3.5s-14.69-5.17-19.63-8.51l9.61-19.02c4.81,3.07,10.54,5.58,17.22,7.51,6.67,1.94,13.42,2.9,20.23,2.9,7.74,0,13.38-1.03,16.92-3.1s5.31-4.91,5.31-8.51c0-2.93-1.2-5.17-3.6-6.71-2.4-1.53-5.54-2.7-9.41-3.5s-8.18-1.53-12.92-2.2-9.48-1.57-14.22-2.7c-4.74-1.13-9.05-2.8-12.92-5.01-3.87-2.2-7.01-5.17-9.41-8.91-2.4-3.74-3.6-8.74-3.6-15.02,0-6.67,1.93-12.52,5.81-17.52,3.87-5.01,9.31-8.91,16.32-11.72,7.01-2.8,15.32-4.21,24.93-4.21,7.08,0,14.32.83,21.73,2.5s13.58,3.97,18.52,6.91l-9.81,19.03c-4.94-2.94-10.01-4.97-15.22-6.11-5.21-1.13-10.35-1.7-15.42-1.7-7.48,0-13.09,1.1-16.82,3.3-3.74,2.2-5.61,5.04-5.61,8.51,0,3.2,1.2,5.61,3.6,7.21,2.4,1.6,5.54,2.84,9.41,3.71s8.18,1.67,12.92,2.4c4.74.74,9.44,1.67,14.12,2.8,4.67,1.14,8.98,2.74,12.92,4.81,3.94,2.07,7.11,4.98,9.51,8.71,2.4,3.74,3.61,8.61,3.61,14.62,0,6.81-1.97,12.65-5.91,17.52-3.94,4.88-9.48,8.68-16.62,11.42-7.15,2.72-15.73,4.09-25.74,4.09Z"/>
    <path class="cls-17" d="m983.81,187.82v-15.82l65.89-79.71,4.81,8.61h-69.49v-20.03h89.32v15.82l-65.89,79.71-5.01-8.61h72.7v20.03h-92.33Z"/>
    <path class="cls-17" d="m1106.17,228.08c-5.34,0-10.61-.87-15.82-2.6-5.21-1.74-9.48-4.14-12.82-7.21l9.81-18.22c2.54,2.13,5.37,3.87,8.51,5.21,3.13,1.33,6.44,2,9.91,2,4.54,0,8.21-1.14,11.01-3.4,2.8-2.27,5.41-6.14,7.81-11.62l6.01-13.62,2.4-3.2,40.25-94.53h24.03l-50.07,115.75c-3.34,7.88-7.04,14.12-11.11,18.72-4.07,4.61-8.61,7.88-13.62,9.81-4.98,1.94-10.42,2.91-16.3,2.91Zm21.83-36.45l-48.26-110.75h25.83l39.45,92.32-17.02,18.43Z"/>
    <path class="cls-17" d="m1273.59,79.48c8.68,0,16.32,1.67,22.93,5.01,6.61,3.34,11.88,8.48,15.82,15.42s5.91,15.82,5.91,26.63v61.28h-25.03v-58.08c0-9.48-2.2-16.55-6.61-21.23-4.41-4.67-10.68-7.01-18.83-7.01-5.88,0-11.08,1.2-15.62,3.6s-8.04,5.98-10.51,10.71c-2.47,4.74-3.7,10.71-3.7,17.92v54.07h-24.83v-106.92h23.83v29.04l-4.21-9.01c3.6-6.81,8.98-12.08,16.12-15.82,7.14-3.74,15.39-5.61,24.73-5.61Z"/>
    <path class="cls-17" d="m527.41,428.14v-140.18h26.03v140.18h-26.03Zm23.03-33.04l-1.2-30.84,73.3-76.3h29.44l-61.08,64.88-14.42,15.82-26.04,26.44Zm74.7,33.04l-53.87-63.88,17.42-19.02,67.09,82.91h-30.64Z"/>
    <path class="cls-17" d="m669.2,428.14v-106.94h23.83v29.44l-2.8-8.61c3.07-7.21,8.08-12.72,15.02-16.52s15.42-5.71,25.43-5.71v23.83c-.94-.13-1.87-.23-2.8-.3-.94-.07-1.8-.1-2.6-.1-9.61,0-17.22,2.74-22.83,8.21-5.61,5.48-8.41,13.82-8.41,25.03v51.67h-24.84Z"/>
    <path class="cls-17" d="m776.74,429.54c-8.01,0-15.02-1.37-21.03-4.1-6.01-2.74-10.65-6.54-13.92-11.42-3.27-4.87-4.91-10.38-4.91-16.52s1.43-11.42,4.31-16.22c2.87-4.81,7.58-8.61,14.12-11.42,6.54-2.8,15.22-4.21,26.03-4.21h31.04v16.62h-29.23c-8.41,0-14.12,1.37-17.12,4.11s-4.51,6.18-4.51,10.31c0,4.41,1.8,7.94,5.41,10.61,3.6,2.67,8.61,4,15.02,4s11.65-1.4,16.52-4.21c4.87-2.8,8.44-6.94,10.71-12.42l4,15.02c-2.4,6.28-6.68,11.15-12.82,14.62-6.13,3.5-14.01,5.23-23.62,5.23Zm33.64-1.4v-21.83l-1.2-4.41v-37.85c0-7.34-2.24-13.05-6.71-17.12-4.47-4.07-11.25-6.11-20.33-6.11-5.88,0-11.68.94-17.42,2.8-5.74,1.87-10.68,4.47-14.82,7.81l-9.81-18.22c5.87-4.41,12.75-7.74,20.63-10.01,7.88-2.27,16.09-3.4,24.63-3.4,15.62,0,27.64,3.74,36.05,11.21,8.41,7.48,12.62,18.96,12.62,34.45v62.68h-23.64Z"/>
    <path class="cls-17" d="m854.84,468.39c-4.54,0-8.91-.54-13.12-1.6-4.21-1.07-7.78-2.6-10.71-4.61l7.21-18.62c3.87,2.8,8.75,4.21,14.62,4.21,4.54,0,8.08-1.44,10.61-4.31,2.53-2.87,3.8-7.11,3.8-12.72v-109.54h25.03v108.94c0,11.75-3.24,21.06-9.71,27.94-6.47,6.88-15.71,10.31-27.73,10.31Zm24.83-164.81c-4.68,0-8.51-1.47-11.52-4.41-3-2.94-4.51-6.54-4.51-10.81,0-4.01,1.5-7.48,4.51-10.41,3-2.94,6.84-4.41,11.52-4.41s8.51,1.37,11.51,4.1c3,2.74,4.51,6.24,4.51,10.51s-1.47,7.91-4.41,10.91c-2.93,3.02-6.8,4.52-11.61,4.52Z"/>
    <path class="cls-17" d="m975.4,429.54c-11.88,0-22.26-2.37-31.14-7.11s-15.75-11.21-20.63-19.42c-4.88-8.21-7.31-17.66-7.31-28.34s2.37-20.13,7.11-28.34,11.28-14.69,19.63-19.43c8.34-4.74,17.85-7.11,28.54-7.11s19.69,2.3,27.84,6.91c8.14,4.61,14.55,11.05,19.23,19.33,4.67,8.28,7.01,18.09,7.01,29.44,0,.94-.03,2.1-.1,3.5s-.17,2.64-.3,3.71h-89.13v-16.62h75.9l-10.01,5.21c.13-6.01-1.1-11.38-3.71-16.12-2.6-4.74-6.18-8.41-10.71-11.01-4.54-2.6-9.88-3.91-16.02-3.91s-11.38,1.3-16.12,3.91c-4.74,2.6-8.38,6.31-10.91,11.11-2.54,4.81-3.81,10.35-3.81,16.62v4.01c0,6.41,1.43,12.08,4.31,17.02,2.87,4.94,6.98,8.78,12.32,11.51,5.34,2.74,11.55,4.11,18.62,4.11,6.01,0,11.42-1,16.22-3,4.81-2,9.08-4.94,12.82-8.81l13.62,15.62c-4.94,5.61-11.05,9.88-18.32,12.82-7.3,2.93-15.61,4.39-24.95,4.39Z"/>
    <path class="cls-17" d="m1110.38,319.8c8.68,0,16.32,1.67,22.93,5.01,6.61,3.34,11.88,8.48,15.82,15.42s5.91,15.82,5.91,26.63v61.28h-25.03v-58.08c0-9.48-2.2-16.55-6.61-21.23-4.41-4.67-10.68-7.01-18.83-7.01-5.88,0-11.08,1.2-15.62,3.6s-8.04,5.98-10.51,10.71c-2.47,4.74-3.7,10.71-3.7,17.92v54.07h-24.83v-106.92h23.83v29.04l-4.21-9.01c3.6-6.81,8.98-12.08,16.12-15.82,7.13-3.74,15.38-5.61,24.73-5.61Zm-24.64-13.22l27.04-27.44h29.64l-35.05,27.44h-21.63Z"/>
    <path class="cls-17" d="m1220.12,429.54c-9.08,0-17.69-1.17-25.83-3.5s-14.69-5.17-19.63-8.51l9.61-19.02c4.81,3.07,10.54,5.58,17.22,7.51,6.67,1.94,13.42,2.9,20.23,2.9,7.74,0,13.38-1.03,16.92-3.1s5.31-4.91,5.31-8.51c0-2.93-1.2-5.17-3.6-6.71-2.4-1.53-5.54-2.7-9.41-3.5s-8.18-1.53-12.92-2.2-9.48-1.57-14.22-2.7-9.05-2.8-12.92-5.01c-3.87-2.2-7.01-5.17-9.41-8.91s-3.6-8.74-3.6-15.02c0-6.67,1.93-12.52,5.81-17.52,3.87-5.01,9.31-8.91,16.32-11.72,7.01-2.8,15.32-4.21,24.93-4.21,7.08,0,14.32.83,21.73,2.5s13.58,3.97,18.52,6.91l-9.81,19.03c-4.94-2.94-10.01-4.97-15.22-6.11-5.21-1.13-10.35-1.7-15.42-1.7-7.48,0-13.09,1.1-16.82,3.3-3.74,2.2-5.61,5.04-5.61,8.51,0,3.2,1.2,5.61,3.6,7.21s5.54,2.84,9.41,3.71,8.18,1.67,12.92,2.4c4.74.74,9.44,1.67,14.12,2.8,4.67,1.14,8.98,2.74,12.92,4.81,3.94,2.07,7.11,4.98,9.51,8.71,2.4,3.74,3.61,8.61,3.61,14.62,0,6.81-1.97,12.65-5.91,17.52-3.94,4.88-9.48,8.68-16.62,11.42-7.15,2.72-15.73,4.09-25.74,4.09Z"/>
    <path class="cls-17" d="m1290.21,428.14v-148.6h24.83v148.6h-24.83Zm20.23-23.83l.6-31.44,55.87-51.67h30.04l-47.46,47.46-13.42,11.21-25.63,24.44Zm60.48,23.83l-39.45-48.26,15.82-20.03,53.87,68.29h-30.24Z"/>
    <path class="cls-17" d="m1429.99,303.58c-4.67,0-8.51-1.47-11.51-4.41s-4.51-6.54-4.51-10.81c0-4.01,1.5-7.48,4.51-10.41,3-2.94,6.84-4.41,11.51-4.41s8.51,1.37,11.52,4.1c3,2.74,4.51,6.24,4.51,10.51s-1.47,7.91-4.41,10.91c-2.94,3.02-6.81,4.52-11.62,4.52Zm-12.41,124.56v-106.94h24.83v106.94h-24.83Z"/>
  </g>
</svg>