<?xml version="1.0" encoding="UTF-8"?>
<svg id="Warstwa_1" data-name="Warstwa 1" xmlns="http://www.w3.org/2000/svg" viewBox="0 0 1451.21 508">
  <defs>
    <style>
      .cls-1, .cls-2, .cls-3, .cls-4, .cls-5, .cls-6, .cls-7, .cls-8, .cls-9, .cls-10, .cls-11, .cls-12, .cls-13, .cls-14 {
        stroke-width: 2px;
      }

      .cls-1, .cls-2, .cls-3, .cls-4, .cls-5, .cls-7, .cls-8, .cls-10, .cls-11, .cls-12, .cls-13, .cls-14, .cls-15 {
        stroke: #000;
      }

      .cls-1, .cls-9, .cls-11, .cls-13 {
        stroke-linecap: round;
      }

      .cls-2, .cls-3, .cls-4, .cls-5, .cls-6, .cls-7, .cls-8, .cls-16, .cls-10, .cls-12, .cls-15 {
        fill-rule: evenodd;
      }

      .cls-17, .cls-5 {
        fill: #fff;
      }

      .cls-3 {
        fill: #00ac4e;
      }

      .cls-4 {
        fill: #00ab4e;
      }

      .cls-6, .cls-16 {
        fill: #fdaf17;
        stroke: #010000;
      }

      .cls-7 {
        fill: #ffc800;
      }

      .cls-8 {
        fill: #0e8d49;
      }

      .cls-9 {
        stroke: #504e4b;
      }

      .cls-9, .cls-13, .cls-14 {
        fill: none;
      }

      .cls-16, .cls-15 {
        stroke-miterlimit: 4;
        stroke-width: 2px;
      }

      .cls-10 {
        fill: #252122;
      }

      .cls-11 {
        fill: #feffff;
      }

      .cls-12 {
        fill: #d6ac00;
      }
    </style>
  </defs>
  <g id="g3342">
    <g id="g3141">
      <path id="path1334" class="cls-7" d="m1240.87,1.01l-207.58,1.04v311.9c8.59,101.09,96.79,196.18,207.58,192.98V1.01Z"/>
      <path id="path2482" class="cls-4" d="m1122.19,119.3l.3-16.14c.31-6.51-3.57-7.28-6.57-5.08-3.34,2.45-6.02.25-4.78-8.67,1.75-11.37-5.94-13.32-8.37-8.37-3.75,6.22-6.34.92-5.08-5.98,1.3-11.67-6.16-14.72-10.16-7.77-4.09,5.36-6.45,4.28-7.47-1.79-.27-5.43-5.23-5.39-10.16-5.38-5.41.87-8.43,4.12-9.86,8.97-1.18,6.5,1.62,9.22,6.28,10.16,5.54-.21,9.2,3.99,1.79,8.07-6.48,4.08-6.89,10.38,6.57,9.86,13.07-2.23,10.49,3.77,7.17,4.78-7.27,3.88-.45,10.04,10.16,8.37,10.52-1.28,13.09,3.21,9.26,4.78-4.77,4.36-.12,8.31,8.07,6.28,4.38-.89,8.74-1.74,12.85-2.09Z"/>
      <path id="path2486" class="cls-4" d="m1122.08,229.48l.33-17.63c.34-7.12-3.94-7.96-7.26-5.55-3.69,2.68-6.64.28-5.28-9.47,1.93-12.43-6.56-14.56-9.24-9.14-4.14,6.8-7,1.01-5.61-6.53,1.43-12.76-6.8-16.08-11.22-8.49-4.52,5.86-7.12,4.68-8.25-1.96-.29-5.94-5.78-5.89-11.22-5.88-5.97.95-9.31,4.5-10.89,9.8-1.31,7.11,1.79,10.07,6.93,11.1,6.12-.23,10.16,4.36,1.98,8.82-7.16,4.46-7.61,11.34,7.26,10.78,14.43-2.44,11.58,4.12,7.92,5.22-8.03,4.24-.5,10.97,11.22,9.14,11.61-1.4,14.46,3.51,10.23,5.22-5.27,4.77-.13,9.08,8.91,6.86,4.84-.99,9.65-1.91,14.19-2.29Z"/>
      <path id="path2488" class="cls-4" d="m1123.13,312.99l-4.82-16.18c-1.76-6.59-5.96-6.16-8.34-3.03-2.64,3.47-6.07,2.11-7.65-7.16-1.83-11.88-10.31-11.45-11.22-5.76-1.86,7.36-6.19,2.88-7.1-4.39-2.38-12.04-10.98-12.77-12.87-4.61-2.48,6.61-5.24,6.26-8.21.52-2-5.34-7.06-3.76-12.11-2.22-5.26,2.54-7.32,6.71-7.24,11.99.86,6.85,4.58,8.69,9.65,8.19,5.6-1.92,10.68,1.13,4.4,7.49-5.33,6.07-3.75,12.48,9.86,7.8,12.66-6.26,11.93.51,8.86,2.55-6.21,6.11,2.73,10.15,13.06,5.2,10.35-4.53,14.42-.84,11,1.91-3.5,5.83,2.52,8.32,10.25,3.76,4.2-2.25,8.39-4.44,12.48-6.06Z"/>
      <path id="path2490" class="cls-4" d="m1148.74,123.27l2.62-15.93c.87-6.46,4.82-6.52,7.38-3.81,2.85,3.01,5.87,1.34,6.27-7.66.34-11.5,8.25-12.03,9.74-6.72,2.56,6.79,6.07,2.05,6.08-4.96.83-11.72,8.72-13.36,11.4-5.81,3.05,6.01,5.57,5.38,7.67-.41,1.24-5.3,6.12-4.35,10.97-3.45,5.16,1.83,7.55,5.57,8.08,10.6-.01,6.61-3.26,8.78-8.01,8.86-5.41-1.21-9.77,2.26-3.22,7.61,5.64,5.19,4.9,11.46-8.25,8.51-12.45-4.55-11,1.81-7.92,3.41,6.45,5.13-1.37,9.96-11.51,6.39-10.11-3.16-13.46.79-9.98,3.03,3.91,5.15-1.38,8.19-9.07,4.71-4.14-1.67-8.28-3.28-12.25-4.37Z"/>
      <path id="path2492" class="cls-4" d="m1155.95,220.57l1.18-17.6c.27-7.12,4.6-7.59,7.71-4.91,3.45,2.98,6.6.84,6.07-8.98-.86-12.55,7.78-13.95,9.99-8.32,3.54,7.13,6.89,1.6,6.15-6.03-.34-12.83,8.15-15.44,11.91-7.5,4,6.22,6.7,5.27,8.39-1.25.8-5.89,6.26-5.37,11.68-4.9,5.87,1.45,8.89,5.28,10.01,10.69.69,7.19-2.64,9.88-7.85,10.47-6.08-.75-10.5,3.47-2.73,8.62,6.75,5.06,6.61,11.95-8.16,10.12-14.17-3.66-11.89,3.11-8.34,4.53,7.64,4.91-.44,10.97-11.96,8.15-11.45-2.39-14.71,2.26-10.64,4.33,4.84,5.2-.64,9.05-9.46,6.07-4.75-1.39-9.46-2.72-13.95-3.49Z"/>
      <path id="path2221" class="cls-3" d="m1133.72,103.84l-.04,24.97c-19.81-21.84-39.69-44.44-64.56-59.37,22.49,20,42.27,41.36,61.87,62.8l-9.96-5.49-2.35,2.54c5.07,3.79,12.79,6.69,11.73,12.52l-6.06-2.35-.78,3.13c3.65,2.12,7.79,3.9,6.45,9.58l-.2,14.08-2.54,2.35-10.56-10.37-2.35,3.32,13.1,13.89-8.61-4.11-.98,2.93c5.4,3.05,11.02,5.83,12.13,13.89l-1.76,46.35c-18.66-19.16-39.07-41.91-61.21-56.91l62,64.15-7.43-5.08-2.93,2.93c5.96,1.95,10.04,6.2,9.39,16.23l.2,9-11.54-8.02-.98,4.89,13.49,9.97-8.8-1.76-1.56,3.13c5.37.59,9.48,2.9,9,11.54l-.39,27.18c-23.4-12.33-46.81-20.79-70.21-28.75l64.34,32.27,4.89,9.39v32.07c-.58,13.69-4.69,40.07-11.15,40.48l-6.84.59c-2.52,2.25-5.37,1.92-8.41,0-6.23-5.22-9.51-1.98-12.13,3.13,2.84-1.5,5.65-3.32,9-.78l6.06-.59c-10.07,1.49-7.59,7.62-8.41,12.52,3.71-8.52,9.97-8.13,15.65-9.78,10.67,2.36,12.67-4.53,15.84-10.17-2.47,5.51-2.73,12.56-11.54,13.69-9.17-.99-9.61,4.32-9.58,9.97,1.03-6.09,8.78-8.16,14.67-11.34-6.2,5.04-9.18,9.69-7.04,13.69,2.71-4.42,5.08-9.34,9.78-10.76,4.38-2.14,6.42-6.62,8.8-10.76.88,4,2.34,8.15-.78,11.15-2.12,4.68-.2,8.02.59,11.73.99-7.63,4.94-11.32,9-14.86-4.33,6.13-1.77,9.68,2.15,12.71-.74-4.33-.73-8.44,2.15-11.73-.6-4.53.8-7.72,3.32-10.17,3.84,7.85,4.48,16.76,5.28,25.62,1.08-3.39,3.1-6.4,1.76-10.76,4.35,1.72,6.9,5.68,9.19,9.97.76-8.75-9.92-13.04-10.56-24.84,2.24,4.3,1.73,11.85,9.19,9.97,6.01-.03,7.08,3.08,7.43,6.65-1.37,3.68.86,5.57,4.69,6.65-1.5-2.9-2.73-5.97-2.15-9.39,3.82.27,5.34,7.99,9,9.39,1.72.23,3.08.08,2.74-1.76-4.7-2.2-6.44-11.47-10.76-11.15-4.39-1.47-7.06-4.22-9.39-7.24,7.44-4.47,12.06-1.39,16.43,2.35,4.32,4.48,12.24,7.46,10.95,14.28l1.76.2,1.56-4.89c2.12,3.62,4.15,7.25,8.8,10.37l3.52-.98c-3.33-2.79-5.73-5.95-6.45-9.78-1.17-2.16-1.72-4.83-5.87-4.5-5.51-1.61-8.11-4.68-10.56-7.82-4.17-5-9.59-6.59-15.84-5.87-14.34-.59-10.18-10.43-13.3-16.62l.05-38.03c2.62-8.78,8.05-11.93,13.55-14.94-5.91-1.07-11.69-.61-16.87,6.36l-.55-55.87c3.58-8.34,8.53-13.25,13.55-17.98l-2.49-5.53-10.51,11.89-3.04-1.38c-3.11-18.87,5.1-21.89,12.72-25.72l-1.38-4.43-10.79,7.47c18.95-23.63,40.35-45.78,66.66-65-23.61,13.82-50.4,32.32-70.53,58.63v-48.95c2-6.37,6.37-8.8,10.51-11.62l-2.21-3.6-7.19,3.32,16.32-14.66-2.49-4.7-17.98,15.21.83-19.36c1.04-5.47,4.27-6.58,6.64-9.4l-1.94-3.87-5.26,3.87c19.86-22.06,45.77-37.2,70.53-53.66-28.36,13.13-55.7,27.57-76.06,50.89l1.38-30.42-4.79.02Z"/>
      <path id="path2494" class="cls-4" d="m1152.33,310.18l3.55-16.51c1.24-6.71,5.46-6.61,8.08-3.68,2.91,3.26,6.22,1.63,7.06-7.74.89-11.99,9.38-12.22,10.74-6.62,2.43,7.19,6.4,2.39,6.73-4.93,1.44-12.19,9.95-13.59,12.47-5.6,2.99,6.39,5.71,5.83,8.23-.12,1.58-5.48,6.75-4.3,11.89-3.16,5.44,2.12,7.82,6.12,8.15,11.38-.32,6.9-3.89,9.02-8.98,8.92-5.74-1.48-10.56,1.96-3.8,7.81,5.79,5.64,4.71,12.15-9.22,8.55-13.11-5.25-11.85,1.45-8.63,3.24,6.67,5.61-1.93,10.33-12.61,6.21-10.67-3.7-14.44.29-10.82,2.76,3.94,5.53-1.86,8.49-9.92,4.55-4.37-1.91-8.72-3.76-12.92-5.06Z"/>
      <path id="path2225" class="cls-3" d="m1144.32,315.71c20.78-17.55,46.32-28.46,70.53-41.21-24.25,14.29-47.98,28.99-68.59,46.19"/>
      <path id="path2293" class="cls-4" d="m1124.63,87.5l25.31.8c-.16-11.72,4.34-32.9-11.45-34.63-15.62,1.54-13.11,18.76-13.86,33.83Z"/>
      <path id="path2227" class="cls-8" d="m1120.8,87.53h33.13c-.67,9.25-4.07,17.24-17.83,17.62-15.73-1.26-15.06-11.53-15.3-17.62Z"/>
      <path id="path2229" class="cls-8" d="m1145.77,87.76l6.43,6.97"/>
      <path id="path2231" class="cls-8" d="m1137.93,87.81l11.87,11.51"/>
      <path id="path2233" class="cls-8" d="m1130.03,87.32l15.5,15.5"/>
      <path id="path2235" class="cls-8" d="m1122.93,87.6l16.74,16.91"/>
      <path id="path2239" class="cls-8" d="m1121.01,91.93l11.53,12.37"/>
      <path id="path2241" class="cls-8" d="m1151.49,87.33l-17.73,17.09"/>
      <path id="path2243" class="cls-8" d="m1144.49,87.58l-15.84,15.41"/>
      <path id="path2245" class="cls-8" d="m1137.85,87.58l-13.07,12.53"/>
      <path id="path2247" class="cls-8" d="m1130.24,87.32l-8.39,8.6"/>
      <path id="path2249" class="cls-8" d="m1123.26,87.7l-2.46,2.98"/>
      <path id="path2291" class="cls-8" d="m1152.88,92.91l-12.17,11.61"/>
      <path id="path2295" class="cls-1" d="m1140.09,52.2c0,.66-.6,1.2-1.33,1.2s-1.33-.54-1.33-1.2.6-1.2,1.33-1.2,1.33.54,1.33,1.2Z"/>
      <path id="path2316" class="cls-4" d="m1092.51,162.32l17.05-22.35c-9.63-6.68-23.93-23.08-35.57-9.85-8.87,14.98,6.76,22.75,18.52,32.2Z"/>
      <g id="g3070">
        <path id="path2320" class="cls-8" d="m1091.13,164.31l19.32-26.92c7.12,5.93,11.63,13.36,3.92,24.75-10.2,12.06-18.15,5.53-23.24,2.17Z"/>
        <path id="path2322" class="cls-8" d="m1105.88,144.16l9.42-1.16"/>
        <path id="path2324" class="cls-8" d="m1101.35,150.56l16.27-2.93"/>
        <path id="path2326" class="cls-8" d="m1096.34,156.69l21.63-3.55"/>
        <path id="path2328" class="cls-8" d="m1092.43,162.62l23.5-3.74"/>
        <path id="path2332" class="cls-8" d="m1094.83,166.71l16.78-2.15"/>
        <path id="path2334" class="cls-8" d="m1108.87,139.26l3.54,24.37"/>
        <path id="path2336" class="cls-8" d="m1104.99,145.1l3.28,21.85"/>
        <path id="path2338" class="cls-8" d="m1101.11,150.49l2.56,17.92"/>
        <path id="path2340" class="cls-8" d="m1096.46,156.52l2.09,11.83"/>
        <path id="path2342" class="cls-8" d="m1092.7,162.41l.98,3.74"/>
        <path id="path2344" class="cls-8" d="m1114.21,141.39l2.34,16.66"/>
      </g>
      <path id="path2348" class="cls-4" d="m1183.36,160.1l-13.18-26.03c10.79-4.62,27.93-17.95,37.29-2.21,6.27,16.9-10.71,21.31-24.11,28.24Z"/>
      <path id="path2352" class="cls-8" d="m1184.03,161.95l-13.86-30.1c-8.12,4.47-13.96,10.91-8.55,23.56,7.73,13.77,16.77,8.87,22.41,6.54Z"/>
      <path id="path2354" class="cls-8" d="m1173.37,139.37l-9.02-2.93"/>
      <path id="path2356" class="cls-8" d="m1176.6,146.51l-15.42-5.96"/>
      <path id="path2358" class="cls-8" d="m1180.36,153.48l-20.56-7.6"/>
      <path id="path2360" class="cls-8" d="m1183.07,160.04l-22.36-8.13"/>
      <path id="path2364" class="cls-8" d="m1179.94,163.6l-16.06-5.3"/>
      <path id="path2366" class="cls-8" d="m1171.37,133.98l-8.11,23.25"/>
      <path id="path2368" class="cls-8" d="m1174.07,140.45l-7.38,20.83"/>
      <path id="path2370" class="cls-8" d="m1176.85,146.48l-5.92,17.11"/>
      <path id="path2372" class="cls-8" d="m1180.27,153.29l-4.3,11.22"/>
      <path id="path2374" class="cls-8" d="m1182.84,159.78l-1.67,3.48"/>
      <path id="path2376" class="cls-8" d="m1165.73,135.06l-5.46,15.91"/>
      <path id="path2380" class="cls-4" d="m1184.89,258.58l-12.36-25.25c10.79-4.57,28.11-17.68,36.95-2.42,5.76,16.4-11.15,20.83-24.59,27.67Z"/>
      <g id="g3126">
        <path id="path2384" class="cls-8" d="m1185.8,260.87l-13.56-30.23c-8.17,4.39-14.07,10.77-8.78,23.47,7.59,13.84,16.68,9.03,22.34,6.76Z"/>
        <path id="path2386" class="cls-8" d="m1175.37,238.18l-8.99-3.02"/>
        <path id="path2388" class="cls-8" d="m1178.53,245.35l-15.36-6.12"/>
        <path id="path2390" class="cls-8" d="m1182.22,252.36l-20.48-7.8"/>
        <path id="path2392" class="cls-8" d="m1184.86,258.95l-22.28-8.35"/>
        <path id="path2396" class="cls-8" d="m1181.7,262.48l-16.01-5.46"/>
        <path id="path2398" class="cls-8" d="m1173.42,232.78l-8.34,23.17"/>
        <path id="path2400" class="cls-8" d="m1176.06,239.27l-7.58,20.76"/>
        <path id="path2402" class="cls-8" d="m1178.78,245.33l-6.09,17.05"/>
        <path id="path2404" class="cls-8" d="m1182.13,252.17l-4.41,11.17"/>
        <path id="path2406" class="cls-8" d="m1184.64,258.69l-1.71,3.47"/>
        <path id="path2408" class="cls-8" d="m1167.76,233.79l-5.62,15.86"/>
      </g>
      <path id="path2444" class="cls-4" d="m1093.5,266.95l12.36-25.25c-10.79-4.57-28.11-17.68-36.95-2.42-5.76,16.4,11.15,20.83,24.59,27.67Z"/>
      <g id="g3098">
        <path id="path2448" class="cls-8" d="m1092.59,269.23l13.56-30.23c8.17,4.39,14.07,10.77,8.78,23.47-7.59,13.85-16.68,9.04-22.34,6.76Z"/>
        <path id="path2450" class="cls-8" d="m1103.02,246.55l8.99-3.02"/>
        <path id="path2452" class="cls-8" d="m1099.86,253.72l15.36-6.12"/>
        <path id="path2454" class="cls-8" d="m1096.17,260.73l20.48-7.8"/>
        <path id="path2456" class="cls-8" d="m1093.53,267.32l22.28-8.35"/>
        <path id="path2460" class="cls-8" d="m1096.69,270.84l16.01-5.46"/>
        <path id="path2462" class="cls-8" d="m1104.97,241.14l8.34,23.17"/>
        <path id="path2464" class="cls-8" d="m1102.33,247.64l7.58,20.76"/>
        <path id="path2466" class="cls-8" d="m1099.61,253.69l6.09,17.05"/>
        <path id="path2468" class="cls-8" d="m1096.26,260.54l4.41,11.17"/>
        <path id="path2470" class="cls-8" d="m1093.75,267.05l1.71,3.47"/>
        <path id="path2472" class="cls-8" d="m1110.63,242.16l5.62,15.86"/>
      </g>
      <path id="path2474" class="cls-1" d="m1210.32,131.7c0,.66-.6,1.2-1.33,1.2s-1.33-.54-1.33-1.2.6-1.2,1.33-1.2,1.33.53,1.33,1.2Z"/>
      <path id="path2476" class="cls-1" d="m1074.64,128.71c0,.66-.6,1.2-1.33,1.2s-1.33-.54-1.33-1.2.6-1.2,1.33-1.2,1.33.53,1.33,1.2Z"/>
      <path id="path2478" class="cls-1" d="m1070.45,238.09c0,.66-.6,1.2-1.33,1.2s-1.33-.54-1.33-1.2.6-1.2,1.33-1.2,1.33.53,1.33,1.2Z"/>
      <path id="path2480" class="cls-1" d="m1211.21,232.41c0,.66-.6,1.2-1.33,1.2s-1.33-.54-1.33-1.2.6-1.2,1.33-1.2,1.33.54,1.33,1.2Z"/>
      <path id="path2484" class="cls-14" d="m1097.39,73.88h-.3"/>
    </g>
    <g id="g3300">
      <path id="path2209" class="cls-3" d="m1242.63,1.01l207.58,1.04v311.9c-8.59,101.09-96.79,196.18-207.58,192.98V1.01Z"/>
      <g id="g3233">
        <g id="g2640">
          <path id="path2594" class="cls-5" d="m1328.7,251.63c1.54-21.87-10.61-35.92-19.27-51.96-16.32-30.21-2.86-53.06,11.48-61.89,8.65-7.36,9.79-18.79-3.31-22.77l-66.17-17.71h52.35c2.77-3.06,6.7-5.39,12.07-5.33,1.06,5.54,4.72,11,13.04,14.48,13.15,2.93,21.06,20.26,7.01,36.98-12.59,11.47-20.82,24.26-11.29,42.43,4.61,5.46,9.21,3.97,13.82-.39,16.34-15.41,23.04-12.83,38.14-2.72,10.76,5.95,20.21,14.81,28.32,25.38,25.62,23.85,42.16,103.45,34.15,127.2-.71-.99-1.59-1.76-1.51-3.74,3.49-25.96-7.4-46.89-14.9-69.01,7.92,22.7,16.75,45.27,13.36,69.67-1.78,3.99-2.95,4.97-4.16,6.13-7.58-20.47-16.77-39.18-37.68-48.64-14.09-8.33-27.79-16.99-39-29.36l-3.51,7.89-2.63-15.99c.3,7.21-.74,13.52-3.94,18.4,1.63-6.65.3-13.29-1.53-19.94-.78,6.29-3.44,9.45-5.92,12.93,1.83-5.42,1.81-11.31,1.31-17.31-1.15,3.67-2.59,6.97-5.48,8.33,2.43-6.28.63-12.56-1.53-18.84l-3.22,15.78Z"/>
          <path id="path2596" class="cls-10" d="m1315.51,91.67c14.86-1.89,20.9,6.66,26.95,15.12,3.99,7.08,8.57,16.46,17.75,18.4-4.09,2.61-7.41-.13-10.95-1.31l8.98,7.23c-5.14-.7-10.32-1.08-14.9-7.45-.55-8.83-6.05-13.93-13.58-17.53-8.69-2.2-12.56-7.6-14.25-14.46Z"/>
          <path id="path2604" class="cls-10" d="m1425.43,270.74l-3.38-8.14c-.53,1.85-.39,2.52.92,8.05-7.93-2.46-9.42-9.51-13.22-14.91,1.07,4.05,2.2,8.12,5.5,12.49-8.66-1.66-9.71-7.87-13.77-14.13.98,3.1.74,5.58,2.93,8.68-9.01-3.19-10.82-9.46-13.22-15.48-.75,4.33,1.44,6.98,2.8,10.11-7.47,1.37-8.01-7.67-10.68-13.49-.65,2.32.3,5.92,1.24,9.51-6.67-3.38-7.33-8.47-9.12-14.29-.48,2.72-.61,5.6.84,9.29-7.09-2.47-9.08-10.05-11.82-16.88-.2,3.18.27,5.44,1.44,10.71-11.99-10.43-16.03-22.49-14.38-38.57,2.2-10.5,8.96-13.3,20.54-9.29-4.91-3.88-14.93-11.61-24.27-3.45-6.75,9.5-4.13,17.45-2.18,25.4l-7.77-4.31,11.63,8.02c1.4,2.2.96,3.17.56,4.17l-5.12-3.9,9.02,7.8c.05,1.81-.06,3.3-1.22,2.68l-7.07-5.61,10,9.75c.99,2.15-.25,2.28-1.46,2.44l-4.39-3.41c2.33,5.08,8.42,8.97,11.22,13.66.64,1.45.01,1.96-.98,2.19-1.71-2.51-3.41-3.49-5.12-4.39l6.58,10c.47,3.06-.74,3.8-2.93,3.17-2.73-5.67-10.86-16.94-11.46-15.61,3.24,4.44,6.35,9,6.58,15.85-.89,1.18-2.25.63-3.14,0l1.25,8.32,3.31-7.07c4.67,4.64,9.55,9.14,14.84,13.38,3.16,2.4,4.43,2.74,7.61,5.15l18.04,11.24c18.23,8.14,29.71,27.26,36.47,47.31,1.2-1.19,2.26-2.6,3.05-4.42-.77.3,3.01.36,2.53-.79,2.46-19.71-1.03-30.1-5.77-43.42,0-.02-5.9-15.14-6.43-17.81Z"/>
          <path id="path2606" class="cls-13" d="m1326.63,136.96c-2.52,3.88-7.15,5.49-10.82,10.01"/>
          <path id="path2608" class="cls-13" d="m1311.1,146.84c-.02,3.61.62,6.57,1.8,8.98"/>
          <path id="path2610" class="cls-13" d="m1307.05,152.91c.91,3.51,1.95,6.96,4.04,9.88"/>
          <path id="path2612" class="cls-13" d="m1304.58,159.2c.43,3.97,2.82,7.94,5.62,11.9"/>
          <path id="path2616" class="cls-13" d="m1302.79,169.3c2.01,5.93,4.38,11.49,8.76,15.05"/>
          <path id="path2618" class="cls-13" d="m1307.73,186.38c2.34,4.67,5.25,9.1,10.56,12.58"/>
          <path id="path2620" class="cls-13" d="m1316.49,203c2.6,4.09,5.64,7.29,9.43,8.98"/>
          <path id="path2622" class="cls-13" d="m1323.45,216.02c2.92,4.13,5.21,9.5,9.21,11.46"/>
          <path id="path2624" class="cls-5" d="m1361.19,241.4c.21,5.28,2.65,9.77,7.45,12.6,1.83-1.02-1.14-7.52-.2-9.75-2.69.75-4.83-1.81-7.25-2.85Z"/>
          <path id="path2626" class="cls-5" d="m1370.32,246.35c-.31,8.51,2.36,14.51,7.86,18.13,2.24-1.93-3.33-11.7-.69-14.92-3.06-.18-4.98-1.88-7.17-3.21Z"/>
          <path id="path2628" class="cls-5" d="m1377.89,250.17c.77,7.02,2.31,16.28,6.55,17.04,1.16-3.17-1.95-11.93.29-12.67-3.41-.32-4.86-2.61-6.84-4.37Z"/>
          <path id="path2630" class="cls-5" d="m1385.47,255.26l5.97,4.22c-3.49.15,2.08,9.17,1.02,13.69-6.93-1.66-6.23-10.97-6.99-17.91Z"/>
          <path id="path2632" class="cls-5" d="m1392.02,259.2c2.46-1.6,4.63-.02,6.7,2.62-3.91,4.1,4.86,15.54,4.22,18.35-6.95.04-12.95-17.5-10.92-20.97Z"/>
          <path id="path2634" class="cls-5" d="m1399.45,262.4c-.95,9.1,5.98,20.64,15,24.76,1.99-1.78-10.27-12.72-8.16-23.3-1.66.13-2.28,1.31-6.84-1.46Z"/>
          <path id="path2636" class="cls-5" d="m1407.46,265.75c3.16,3.07,6.31,3.35,9.47,3.79-1.84,3.47,7.41,17.34,6.55,20.54-11.12-6.66-14.98-14.58-16.02-24.33Z"/>
          <path id="path2638" class="cls-5" d="m1417.94,269.68c2.2.87,4.56,2.73,6.41,1.46l7.28,21.12c-6.21,2.46-11.24-14.31-14.42-22.28"/>
          <path id="path2592" class="cls-12" d="m1252.04,97.63h52.13c5.08,1.92,3.84,9.47,8.31,12.84-22.54-3.84-43.58-7.96-60.44-12.84Z"/>
          <path id="path2598" class="cls-9" d="m1283.52,101.09l15.55-.22"/>
          <path id="path2600" class="cls-11" d="m1315.85,102.96c0,1.31-1.17,2.37-2.61,2.37s-2.61-1.06-2.61-2.37,1.17-2.37,2.61-2.37c1.45,0,2.61,1.06,2.61,2.37Z"/>
          <path id="path2602" class="cls-1" d="m1313.76,102.85c0,.48-.39.88-.88.88s-.88-.39-.88-.88.39-.88.88-.88.88.39.88.88h0Z"/>
        </g>
        <path id="path3231" class="cls-5" d="m1421.12,291.32c2.46-1.51,7.38,5.06,11.13,2.27,1.37,3.16,2.18,7.35,3.11,10.81,1.59,8.38,2.67,14.75,1.01,26.48l-2.85,6.03c1.56-21.45-4.69-34.32-12.4-45.59Z"/>
      </g>
      <g id="g3281">
        <path id="path3261" class="cls-6" d="m1366.88,268.88l9.91,7c-10.08,4.12,1.51,18.88-7.87,22.16,1.61-.27,3.17-.9,4.37-4.37.03,4.81-2.2,10.42-4.96,11.08,3.7-1.24,3.23-2.91,4.37-4.66-5.02,15.35-6.71,30.22-9.04,45.19.44,4.31-3,9.39,3.74,11.11,6.35.99,12.25-3.55,14.34-.32l-.58,4.37c-1.69,1.35-3.28.11-7.62-.18-4.64-.31-10.37-.45-12.5-1.86-5.76.5-13.74,8.64-22.45,8.16-2.16.8-3.28,1.54-5.85,1.12l-1.24-3.87c3.23-1.23,5.64.59,8.41.1,3.21-.57,6.5-2.06,10.05-3.48-23.54,1.86-21.89-.09-27.78,1.3-2.72,1.26-5.27,1.46-7.58.29l-.93-3.82c3.68-1.68,7.77-2.08,12.67-.1,3.39,1.58,11.22.06,16.95-.31-2.08-2.23-6.87-3.15-12.58-3.77l-3.21.29.29-4.08c3.57-.22,7.32.33,11.66,3.21,5.45,1.08,14.94,4.42,17.78-2.62,2.89-13.82,6.48-26.95,6.41-43.73-.74-5.35-1.2-8.56,1.46-14.21,4.13-6,1.25-16.6,1.78-24Z"/>
        <path id="path3263" class="cls-2" d="m1327.78,350.58c-1.07-1.54-8.8.69-8.71,2.93,2.77-1.36,5.74-.52,8.71.4v-3.33Z"/>
        <path id="path3265" class="cls-2" d="m1313.84,358.5l.63,3.56c-4.31-.68-6.68.43-8.47,2.06,1.64-2.52,2.57-5.51,7.84-5.62Z"/>
        <path id="path3267" class="cls-2" d="m1331.58,364.05c-4.61,1.16-5.85,3.56-6.49,6.18,2-2.15,4.55-3.1,7.6-2.93l-1.11-3.25Z"/>
        <path id="path3269" class="cls-2" d="m1382.31,356.52c4.74.29,6.41,2.42,7.52,4.88-2.36-1.75-5.04-2.21-8.01-1.48l.49-3.4Z"/>
      </g>
      <g id="g3288">
        <path id="path3290" class="cls-16" d="m1370.2,261.61l12.66,7.13c-7.16,6.57,4.03,34.46-4.82,38.97,1.56-.48,3.02-1.32,3.74-4.92.68,4.76-.78,10.62-3.43,11.65,3.5-1.73,2.81-3.32,3.71-5.2-2.91,15.88-2.59,34.29-2.89,49.43,1.01,4.21-1.71,9.71,5.2,10.51,6.43.13,11.66-5.16,14.17-2.24v4.41c-1.48,1.56-3.22.55-7.56.84-4.64.32-10.34.95-12.64-.17-5.64,1.27-11.85,8.83-20.66,11.95-2.03,1.08-2.44,3.18-5.04,3.1l-1.75-3.67c3.04-1.65,5.52-.52,7.74-2.24,2.39-1.84,5.69-3.77,9.01-5.65-23.08,5-21.7,2.85-27.35,5.02-2.53,1.61-5.03,2.15-7.47,1.3l-1.43-3.66c3.42-2.16,7.42-3.1,12.54-1.8,3.57,1.11,11.13-1.45,16.76-2.58-2.36-1.93-7.23-2.2-12.97-2.05l-3.14.72-.26-4.08c3.51-.7,7.3-.66,11.99,1.62,5.55.34,15.4,2.37,17.27-4.98,1.01-14.08,2.8-31.02.48-47.63-1.45-5.19-2.34-8.32-.46-14.28,3.26-8.01-.62-33.7-3.37-41.49Z"/>
        <path id="path3292" class="cls-15" d="m1344.31,368.74c-1.27-1.38-8.63,1.86-8.24,4.07,2.56-1.72,5.62-1.29,8.68-.77l-.45-3.3Z"/>
        <path id="path3294" class="cls-15" d="m1331.56,378.46l1.1,3.44c-4.36-.1-6.56,1.32-8.12,3.18,1.29-2.72,1.82-5.82,7.01-6.62Z"/>
        <path id="path3296" class="cls-15" d="m1350.61,383.75c-4.41,1.77-5.32,4.31-5.6,7,1.69-2.4,4.09-3.68,7.14-3.92l-1.54-3.07Z"/>
        <path id="path3298" class="cls-15" d="m1399.14,367.3c4.74-.35,6.68,1.54,8.11,3.83-2.57-1.42-5.29-1.51-8.14-.39l.03-3.43Z"/>
      </g>
    </g>
  </g>
  <g>
    <path class="cls-17" d="m125.61,183.56V42.87h26.13v140.69h-26.13Zm23.11-33.16l-1.21-30.95,73.56-76.57h29.54l-61.3,65.12-14.47,15.88-26.13,26.53Zm74.97,33.16l-54.06-64.11,17.49-19.09,67.33,83.21h-30.75Z"/>
    <path class="cls-17" d="m267.9,183.56v-107.33h23.92v29.54l-2.81-8.64c3.08-7.24,8.11-12.76,15.07-16.58,6.97-3.82,15.48-5.73,25.52-5.73v23.92c-.94-.13-1.88-.23-2.81-.3-.94-.07-1.81-.1-2.61-.1-9.65,0-17.28,2.75-22.91,8.24-5.63,5.5-8.44,13.87-8.44,25.12v51.85h-24.92Z"/>
    <path class="cls-17" d="m397.54,184.97c-9.11,0-17.15-1.71-24.12-5.12-6.97-3.42-12.43-8.64-16.38-15.68-3.95-7.03-5.93-15.91-5.93-26.63v-61.3h25.32v58.08c0,9.52,2.21,16.65,6.63,21.4,4.42,4.76,10.58,7.13,18.49,7.13,5.89,0,11.05-1.21,15.48-3.62,4.42-2.41,7.84-6.03,10.25-10.85,2.41-4.82,3.62-10.78,3.62-17.89v-54.27h25.12v107.33h-23.92v-29.14l4.22,9.04c-3.62,6.83-8.91,12.13-15.88,15.88-6.97,3.75-14.61,5.63-22.91,5.63Z"/>
    <path class="cls-17" d="m522.35,184.97c-9.11,0-17.76-1.17-25.93-3.52-8.17-2.34-14.74-5.19-19.7-8.54l9.65-19.09c4.82,3.08,10.58,5.6,17.28,7.54,6.7,1.94,13.47,2.91,20.3,2.91,7.77,0,13.43-1.04,16.98-3.12,3.55-2.08,5.33-4.92,5.33-8.54,0-2.95-1.21-5.19-3.62-6.73-2.41-1.54-5.56-2.71-9.45-3.52-3.89-.8-8.21-1.54-12.96-2.21-4.76-.67-9.52-1.57-14.27-2.71-4.76-1.14-9.08-2.81-12.96-5.02-3.89-2.21-7.03-5.19-9.45-8.94-2.41-3.75-3.62-8.77-3.62-15.07,0-6.7,1.94-12.56,5.83-17.59,3.88-5.02,9.35-8.94,16.38-11.76s15.38-4.22,25.02-4.22c7.1,0,14.37.84,21.81,2.51,7.44,1.68,13.63,3.99,18.59,6.93l-9.85,19.09c-4.96-2.95-10.05-4.99-15.27-6.13-5.23-1.14-10.39-1.71-15.48-1.71-7.51,0-13.13,1.11-16.88,3.32-3.75,2.21-5.63,5.06-5.63,8.54,0,3.22,1.21,5.63,3.62,7.24,2.41,1.61,5.56,2.85,9.45,3.72,3.88.87,8.21,1.68,12.96,2.41,4.75.74,9.48,1.68,14.17,2.81,4.69,1.14,9.01,2.75,12.96,4.82,3.95,2.08,7.14,4.99,9.55,8.74,2.41,3.75,3.62,8.64,3.62,14.67,0,6.83-1.98,12.7-5.93,17.59-3.95,4.89-9.52,8.71-16.68,11.46-7.17,2.74-15.78,4.12-25.83,4.12Z"/>
    <path class="cls-17" d="m583.65,183.56v-15.88l66.12-79.99,4.82,8.64h-69.74v-20.1h89.64v15.88l-66.12,79.99-5.02-8.64h72.96v20.1h-92.65Z"/>
    <path class="cls-17" d="m706.45,223.96c-5.36,0-10.65-.87-15.88-2.61-5.23-1.74-9.52-4.15-12.86-7.24l9.85-18.29c2.54,2.14,5.39,3.88,8.54,5.23,3.15,1.34,6.46,2.01,9.95,2.01,4.55,0,8.24-1.14,11.05-3.42,2.81-2.28,5.43-6.16,7.84-11.66l6.03-13.67,2.41-3.22,40.4-94.86h24.12l-50.25,116.17c-3.35,7.9-7.07,14.17-11.15,18.79-4.09,4.62-8.64,7.9-13.67,9.85-5.02,1.94-10.49,2.91-16.38,2.91Zm21.91-36.58l-48.44-111.14h25.93l39.59,92.65-17.08,18.49Z"/>
    <path class="cls-17" d="m874.47,74.83c8.71,0,16.38,1.68,23.01,5.02,6.63,3.35,11.92,8.51,15.88,15.48,3.95,6.97,5.93,15.88,5.93,26.73v61.5h-25.12v-58.29c0-9.51-2.21-16.61-6.63-21.3-4.42-4.69-10.72-7.03-18.89-7.03-5.9,0-11.12,1.21-15.68,3.62-4.56,2.41-8.07,6-10.55,10.75-2.48,4.76-3.72,10.75-3.72,17.99v54.27h-24.92v-107.33h23.92v29.14l-4.22-9.04c3.62-6.83,9.01-12.12,16.18-15.88,7.17-3.75,15.44-5.63,24.82-5.63Z"/>
    <path class="cls-17" d="m0,424.74v-140.69h26.13v140.69H0Zm23.11-33.16l-1.21-30.95,73.56-76.57h29.54l-61.3,65.12-14.47,15.88-26.13,26.53Zm74.97,33.16l-54.06-64.11,17.49-19.09,67.33,83.21h-30.75Z"/>
    <path class="cls-17" d="m142.29,424.74v-107.33h23.92v29.54l-2.81-8.64c3.08-7.24,8.11-12.76,15.07-16.58,6.97-3.82,15.48-5.73,25.52-5.73v23.92c-.94-.13-1.88-.23-2.81-.3-.94-.07-1.81-.1-2.61-.1-9.65,0-17.28,2.75-22.91,8.24-5.63,5.5-8.44,13.87-8.44,25.12v51.85h-24.92Z"/>
    <path class="cls-17" d="m250.22,426.15c-8.04,0-15.07-1.38-21.1-4.12-6.03-2.74-10.69-6.56-13.97-11.46-3.29-4.89-4.92-10.42-4.92-16.58s1.44-11.46,4.32-16.28c2.88-4.82,7.6-8.64,14.17-11.46,6.56-2.81,15.27-4.22,26.13-4.22h31.15v16.68h-29.34c-8.44,0-14.17,1.38-17.18,4.12-3.01,2.75-4.52,6.2-4.52,10.35,0,4.42,1.81,7.97,5.43,10.65,3.62,2.68,8.64,4.02,15.07,4.02s11.69-1.41,16.58-4.22c4.89-2.81,8.47-6.96,10.75-12.46l4.02,15.07c-2.41,6.3-6.7,11.19-12.86,14.67-6.16,3.49-14.07,5.23-23.72,5.23Zm33.77-1.41v-21.91l-1.21-4.42v-37.99c0-7.37-2.25-13.1-6.73-17.18-4.49-4.09-11.29-6.13-20.4-6.13-5.9,0-11.73.94-17.49,2.81-5.76,1.88-10.72,4.49-14.87,7.84l-9.85-18.29c5.89-4.42,12.79-7.77,20.7-10.05,7.9-2.28,16.14-3.42,24.72-3.42,15.68,0,27.74,3.75,36.18,11.25,8.44,7.51,12.66,19.03,12.66,34.57v62.91h-23.72Z"/>
    <path class="cls-17" d="m328.6,465.14c-4.56,0-8.94-.54-13.16-1.61-4.22-1.07-7.8-2.61-10.75-4.62l7.24-18.69c3.89,2.81,8.78,4.22,14.67,4.22,4.55,0,8.1-1.44,10.65-4.32,2.54-2.88,3.82-7.13,3.82-12.76v-109.94h25.12v109.33c0,11.79-3.25,21.13-9.75,28.04-6.5,6.9-15.78,10.35-27.84,10.35Zm24.92-165.41c-4.69,0-8.54-1.47-11.56-4.42-3.01-2.95-4.52-6.56-4.52-10.85,0-4.02,1.51-7.5,4.52-10.45,3.01-2.95,6.86-4.42,11.56-4.42s8.54,1.38,11.56,4.12c3.01,2.75,4.52,6.26,4.52,10.55s-1.48,7.94-4.42,10.95c-2.95,3.01-6.83,4.52-11.66,4.52Z"/>
    <path class="cls-17" d="m449.6,426.15c-11.93,0-22.34-2.38-31.25-7.13-8.91-4.75-15.81-11.25-20.7-19.5-4.89-8.24-7.34-17.72-7.34-28.44s2.38-20.2,7.14-28.44c4.75-8.24,11.32-14.74,19.7-19.5,8.37-4.75,17.92-7.13,28.64-7.13s19.76,2.31,27.94,6.93c8.17,4.62,14.6,11.09,19.29,19.39,4.69,8.31,7.03,18.16,7.03,29.54,0,.94-.03,2.11-.1,3.52-.07,1.41-.17,2.65-.3,3.72h-89.44v-16.68h76.17l-10.05,5.23c.13-6.03-1.11-11.42-3.72-16.18-2.61-4.75-6.2-8.44-10.75-11.05-4.56-2.61-9.92-3.92-16.08-3.92s-11.42,1.31-16.18,3.92c-4.76,2.61-8.41,6.33-10.95,11.15-2.55,4.82-3.82,10.38-3.82,16.68v4.02c0,6.43,1.44,12.13,4.32,17.08,2.88,4.96,7,8.81,12.36,11.56,5.36,2.75,11.59,4.12,18.69,4.12,6.03,0,11.46-1,16.28-3.01s9.11-4.96,12.86-8.84l13.67,15.68c-4.96,5.63-11.09,9.92-18.39,12.86-7.3,2.95-15.65,4.42-25.02,4.42Z"/>
    <path class="cls-17" d="m585.06,316.01c8.71,0,16.38,1.68,23.01,5.02,6.63,3.35,11.92,8.51,15.88,15.48,3.95,6.97,5.93,15.88,5.93,26.73v61.5h-25.12v-58.29c0-9.51-2.21-16.61-6.63-21.3-4.42-4.69-10.72-7.03-18.89-7.03-5.9,0-11.12,1.21-15.68,3.62-4.56,2.41-8.07,6-10.55,10.75-2.48,4.76-3.72,10.75-3.72,17.99v54.27h-24.92v-107.33h23.92v29.14l-4.22-9.04c3.62-6.83,9.01-12.12,16.18-15.88,7.17-3.75,15.44-5.63,24.82-5.63Zm-24.72-13.26l27.13-27.54h29.75l-35.17,27.54h-21.71Z"/>
    <path class="cls-17" d="m695.2,426.15c-9.11,0-17.76-1.17-25.93-3.52-8.17-2.34-14.74-5.19-19.7-8.54l9.65-19.09c4.82,3.08,10.58,5.6,17.28,7.54,6.7,1.94,13.47,2.91,20.3,2.91,7.77,0,13.43-1.04,16.98-3.12,3.55-2.08,5.33-4.92,5.33-8.54,0-2.95-1.21-5.19-3.62-6.73-2.41-1.54-5.56-2.71-9.45-3.52-3.89-.8-8.21-1.54-12.96-2.21-4.76-.67-9.52-1.57-14.27-2.71-4.76-1.14-9.08-2.81-12.96-5.02-3.89-2.21-7.03-5.19-9.45-8.94-2.41-3.75-3.62-8.77-3.62-15.07,0-6.7,1.94-12.56,5.83-17.59,3.88-5.02,9.35-8.94,16.38-11.76,7.03-2.81,15.38-4.22,25.02-4.22,7.1,0,14.37.84,21.81,2.51,7.44,1.68,13.63,3.99,18.59,6.93l-9.85,19.09c-4.96-2.95-10.05-4.99-15.27-6.13-5.23-1.14-10.39-1.71-15.48-1.71-7.51,0-13.13,1.11-16.88,3.32-3.75,2.21-5.63,5.06-5.63,8.54,0,3.22,1.21,5.63,3.62,7.24,2.41,1.61,5.56,2.85,9.45,3.72,3.88.87,8.21,1.68,12.96,2.41,4.75.74,9.48,1.68,14.17,2.81,4.69,1.14,9.01,2.75,12.96,4.82,3.95,2.08,7.14,4.99,9.55,8.74,2.41,3.75,3.62,8.64,3.62,14.67,0,6.83-1.98,12.7-5.93,17.59-3.95,4.89-9.52,8.71-16.68,11.46-7.17,2.75-15.78,4.12-25.83,4.12Z"/>
    <path class="cls-17" d="m765.54,424.74v-149.13h24.92v149.13h-24.92Zm20.3-23.92l.6-31.55,56.07-51.85h30.15l-47.63,47.63-13.47,11.25-25.73,24.52Zm60.7,23.92l-39.59-48.44,15.88-20.1,54.06,68.54h-30.35Z"/>
    <path class="cls-17" d="m905.82,299.73c-4.69,0-8.54-1.47-11.56-4.42-3.01-2.95-4.52-6.56-4.52-10.85,0-4.02,1.51-7.5,4.52-10.45,3.01-2.95,6.86-4.42,11.56-4.42s8.54,1.38,11.56,4.12c3.01,2.75,4.52,6.26,4.52,10.55s-1.48,7.94-4.42,10.95c-2.95,3.01-6.83,4.52-11.66,4.52Zm-12.46,125.01v-107.33h24.92v107.33h-24.92Z"/>
  </g>
</svg>